<?xml version="1.0" encoding="UTF-8"?>
<!-- Do not edit this file with editors other than diagrams.net -->
<!DOCTYPE svg PUBLIC "-//W3C//DTD SVG 1.1//EN" "http://www.w3.org/Graphics/SVG/1.1/DTD/svg11.dtd">
<svg xmlns="http://www.w3.org/2000/svg" xmlns:xlink="http://www.w3.org/1999/xlink" version="1.1" width="831px" height="521px" viewBox="-0.5 -0.5 831 521" content="&lt;mxfile host=&quot;app.diagrams.net&quot; modified=&quot;2023-05-02T09:50:13.146Z&quot; agent=&quot;Mozilla/5.0 (Windows NT 10.0; Win64; x64) AppleWebKit/537.36 (KHTML, like Gecko) Chrome/112.0.0.0 Safari/537.36&quot; etag=&quot;ASG5Nr2YCcbY35R9G9Xd&quot; version=&quot;21.2.4&quot; type=&quot;github&quot;&gt;&#10;  &lt;diagram name=&quot;Page-1&quot; id=&quot;xwjDph-BTLNEIcGHjNH0&quot;&gt;&#10;    &lt;mxGraphModel dx=&quot;1434&quot; dy=&quot;796&quot; grid=&quot;1&quot; gridSize=&quot;10&quot; guides=&quot;1&quot; tooltips=&quot;1&quot; connect=&quot;1&quot; arrows=&quot;1&quot; fold=&quot;1&quot; page=&quot;1&quot; pageScale=&quot;1&quot; pageWidth=&quot;830&quot; pageHeight=&quot;1169&quot; math=&quot;0&quot; shadow=&quot;0&quot;&gt;&#10;      &lt;root&gt;&#10;        &lt;mxCell id=&quot;0&quot; /&gt;&#10;        &lt;mxCell id=&quot;1&quot; parent=&quot;0&quot; /&gt;&#10;        &lt;mxCell id=&quot;IEez8AGFJPIhpADy_OUS-68&quot; value=&quot;&quot; style=&quot;rounded=0;whiteSpace=wrap;html=1;fillColor=none;strokeColor=none;&quot; vertex=&quot;1&quot; parent=&quot;1&quot;&gt;&#10;          &lt;mxGeometry width=&quot;830&quot; height=&quot;520&quot; as=&quot;geometry&quot; /&gt;&#10;        &lt;/mxCell&gt;&#10;        &lt;mxCell id=&quot;IEez8AGFJPIhpADy_OUS-58&quot; value=&quot;&quot; style=&quot;verticalLabelPosition=bottom;html=1;verticalAlign=top;align=center;shape=mxgraph.floorplan.table;&quot; vertex=&quot;1&quot; parent=&quot;1&quot;&gt;&#10;          &lt;mxGeometry x=&quot;574.4&quot; y=&quot;50&quot; width=&quot;130&quot; height=&quot;70&quot; as=&quot;geometry&quot; /&gt;&#10;        &lt;/mxCell&gt;&#10;        &lt;mxCell id=&quot;IEez8AGFJPIhpADy_OUS-27&quot; value=&quot;&quot; style=&quot;verticalLabelPosition=bottom;html=1;verticalAlign=top;align=center;shape=mxgraph.floorplan.table;&quot; vertex=&quot;1&quot; parent=&quot;1&quot;&gt;&#10;          &lt;mxGeometry x=&quot;60&quot; y=&quot;120&quot; width=&quot;340&quot; height=&quot;100&quot; as=&quot;geometry&quot; /&gt;&#10;        &lt;/mxCell&gt;&#10;        &lt;mxCell id=&quot;IEez8AGFJPIhpADy_OUS-26&quot; value=&quot;&quot; style=&quot;verticalLabelPosition=bottom;html=1;verticalAlign=top;align=center;shape=mxgraph.floorplan.table;&quot; vertex=&quot;1&quot; parent=&quot;1&quot;&gt;&#10;          &lt;mxGeometry x=&quot;60&quot; y=&quot;300&quot; width=&quot;340&quot; height=&quot;160&quot; as=&quot;geometry&quot; /&gt;&#10;        &lt;/mxCell&gt;&#10;        &lt;mxCell id=&quot;IEez8AGFJPIhpADy_OUS-53&quot; value=&quot;&quot; style=&quot;edgeStyle=orthogonalEdgeStyle;rounded=0;orthogonalLoop=1;jettySize=auto;html=1;&quot; edge=&quot;1&quot; parent=&quot;1&quot; source=&quot;IEez8AGFJPIhpADy_OUS-1&quot; target=&quot;IEez8AGFJPIhpADy_OUS-35&quot;&gt;&#10;          &lt;mxGeometry relative=&quot;1&quot; as=&quot;geometry&quot; /&gt;&#10;        &lt;/mxCell&gt;&#10;        &lt;mxCell id=&quot;IEez8AGFJPIhpADy_OUS-1&quot; value=&quot;&quot; style=&quot;image;points=[];aspect=fixed;html=1;align=center;shadow=0;dashed=0;image=img/lib/allied_telesis/computer_and_terminals/Personal_Computer.svg;&quot; vertex=&quot;1&quot; parent=&quot;1&quot;&gt;&#10;          &lt;mxGeometry x=&quot;90&quot; y=&quot;150&quot; width=&quot;45.6&quot; height=&quot;61.800000000000004&quot; as=&quot;geometry&quot; /&gt;&#10;        &lt;/mxCell&gt;&#10;        &lt;mxCell id=&quot;IEez8AGFJPIhpADy_OUS-2&quot; value=&quot;&quot; style=&quot;image;points=[];aspect=fixed;html=1;align=center;shadow=0;dashed=0;image=img/lib/allied_telesis/computer_and_terminals/Personal_Computer.svg;&quot; vertex=&quot;1&quot; parent=&quot;1&quot;&gt;&#10;          &lt;mxGeometry x=&quot;170&quot; y=&quot;150&quot; width=&quot;45.6&quot; height=&quot;61.800000000000004&quot; as=&quot;geometry&quot; /&gt;&#10;        &lt;/mxCell&gt;&#10;        &lt;mxCell id=&quot;IEez8AGFJPIhpADy_OUS-51&quot; value=&quot;&quot; style=&quot;edgeStyle=orthogonalEdgeStyle;rounded=0;orthogonalLoop=1;jettySize=auto;html=1;&quot; edge=&quot;1&quot; parent=&quot;1&quot; source=&quot;IEez8AGFJPIhpADy_OUS-3&quot; target=&quot;IEez8AGFJPIhpADy_OUS-37&quot;&gt;&#10;          &lt;mxGeometry relative=&quot;1&quot; as=&quot;geometry&quot; /&gt;&#10;        &lt;/mxCell&gt;&#10;        &lt;mxCell id=&quot;IEez8AGFJPIhpADy_OUS-3&quot; value=&quot;&quot; style=&quot;image;points=[];aspect=fixed;html=1;align=center;shadow=0;dashed=0;image=img/lib/allied_telesis/computer_and_terminals/Personal_Computer.svg;&quot; vertex=&quot;1&quot; parent=&quot;1&quot;&gt;&#10;          &lt;mxGeometry x=&quot;250&quot; y=&quot;150&quot; width=&quot;45.6&quot; height=&quot;61.800000000000004&quot; as=&quot;geometry&quot; /&gt;&#10;        &lt;/mxCell&gt;&#10;        &lt;mxCell id=&quot;IEez8AGFJPIhpADy_OUS-42&quot; value=&quot;&quot; style=&quot;edgeStyle=orthogonalEdgeStyle;rounded=0;orthogonalLoop=1;jettySize=auto;html=1;&quot; edge=&quot;1&quot; parent=&quot;1&quot; source=&quot;IEez8AGFJPIhpADy_OUS-4&quot; target=&quot;IEez8AGFJPIhpADy_OUS-37&quot;&gt;&#10;          &lt;mxGeometry relative=&quot;1&quot; as=&quot;geometry&quot; /&gt;&#10;        &lt;/mxCell&gt;&#10;        &lt;mxCell id=&quot;IEez8AGFJPIhpADy_OUS-4&quot; value=&quot;&quot; style=&quot;image;points=[];aspect=fixed;html=1;align=center;shadow=0;dashed=0;image=img/lib/allied_telesis/computer_and_terminals/Personal_Computer.svg;&quot; vertex=&quot;1&quot; parent=&quot;1&quot;&gt;&#10;          &lt;mxGeometry x=&quot;330&quot; y=&quot;150&quot; width=&quot;45.6&quot; height=&quot;61.800000000000004&quot; as=&quot;geometry&quot; /&gt;&#10;        &lt;/mxCell&gt;&#10;        &lt;mxCell id=&quot;IEez8AGFJPIhpADy_OUS-55&quot; value=&quot;&quot; style=&quot;edgeStyle=orthogonalEdgeStyle;rounded=0;orthogonalLoop=1;jettySize=auto;html=1;&quot; edge=&quot;1&quot; parent=&quot;1&quot; source=&quot;IEez8AGFJPIhpADy_OUS-9&quot; target=&quot;IEez8AGFJPIhpADy_OUS-39&quot;&gt;&#10;          &lt;mxGeometry relative=&quot;1&quot; as=&quot;geometry&quot; /&gt;&#10;        &lt;/mxCell&gt;&#10;        &lt;mxCell id=&quot;IEez8AGFJPIhpADy_OUS-9&quot; value=&quot;&quot; style=&quot;image;points=[];aspect=fixed;html=1;align=center;shadow=0;dashed=0;image=img/lib/allied_telesis/computer_and_terminals/Personal_Computer.svg;&quot; vertex=&quot;1&quot; parent=&quot;1&quot;&gt;&#10;          &lt;mxGeometry x=&quot;90&quot; y=&quot;390&quot; width=&quot;45.6&quot; height=&quot;61.800000000000004&quot; as=&quot;geometry&quot; /&gt;&#10;        &lt;/mxCell&gt;&#10;        &lt;mxCell id=&quot;IEez8AGFJPIhpADy_OUS-10&quot; value=&quot;&quot; style=&quot;image;points=[];aspect=fixed;html=1;align=center;shadow=0;dashed=0;image=img/lib/allied_telesis/computer_and_terminals/Personal_Computer.svg;&quot; vertex=&quot;1&quot; parent=&quot;1&quot;&gt;&#10;          &lt;mxGeometry x=&quot;170&quot; y=&quot;390&quot; width=&quot;45.6&quot; height=&quot;61.800000000000004&quot; as=&quot;geometry&quot; /&gt;&#10;        &lt;/mxCell&gt;&#10;        &lt;mxCell id=&quot;IEez8AGFJPIhpADy_OUS-49&quot; value=&quot;&quot; style=&quot;edgeStyle=orthogonalEdgeStyle;rounded=0;orthogonalLoop=1;jettySize=auto;html=1;&quot; edge=&quot;1&quot; parent=&quot;1&quot; source=&quot;IEez8AGFJPIhpADy_OUS-11&quot; target=&quot;IEez8AGFJPIhpADy_OUS-38&quot;&gt;&#10;          &lt;mxGeometry relative=&quot;1&quot; as=&quot;geometry&quot; /&gt;&#10;        &lt;/mxCell&gt;&#10;        &lt;mxCell id=&quot;IEez8AGFJPIhpADy_OUS-11&quot; value=&quot;&quot; style=&quot;image;points=[];aspect=fixed;html=1;align=center;shadow=0;dashed=0;image=img/lib/allied_telesis/computer_and_terminals/Personal_Computer.svg;&quot; vertex=&quot;1&quot; parent=&quot;1&quot;&gt;&#10;          &lt;mxGeometry x=&quot;250&quot; y=&quot;390&quot; width=&quot;45.6&quot; height=&quot;61.800000000000004&quot; as=&quot;geometry&quot; /&gt;&#10;        &lt;/mxCell&gt;&#10;        &lt;mxCell id=&quot;IEez8AGFJPIhpADy_OUS-41&quot; value=&quot;&quot; style=&quot;edgeStyle=orthogonalEdgeStyle;rounded=0;orthogonalLoop=1;jettySize=auto;html=1;&quot; edge=&quot;1&quot; parent=&quot;1&quot; source=&quot;IEez8AGFJPIhpADy_OUS-12&quot; target=&quot;IEez8AGFJPIhpADy_OUS-38&quot;&gt;&#10;          &lt;mxGeometry relative=&quot;1&quot; as=&quot;geometry&quot; /&gt;&#10;        &lt;/mxCell&gt;&#10;        &lt;mxCell id=&quot;IEez8AGFJPIhpADy_OUS-12&quot; value=&quot;&quot; style=&quot;image;points=[];aspect=fixed;html=1;align=center;shadow=0;dashed=0;image=img/lib/allied_telesis/computer_and_terminals/Personal_Computer.svg;&quot; vertex=&quot;1&quot; parent=&quot;1&quot;&gt;&#10;          &lt;mxGeometry x=&quot;330&quot; y=&quot;390&quot; width=&quot;45.6&quot; height=&quot;61.800000000000004&quot; as=&quot;geometry&quot; /&gt;&#10;        &lt;/mxCell&gt;&#10;        &lt;mxCell id=&quot;IEez8AGFJPIhpADy_OUS-54&quot; value=&quot;&quot; style=&quot;edgeStyle=orthogonalEdgeStyle;rounded=0;orthogonalLoop=1;jettySize=auto;html=1;&quot; edge=&quot;1&quot; parent=&quot;1&quot; source=&quot;IEez8AGFJPIhpADy_OUS-13&quot; target=&quot;IEez8AGFJPIhpADy_OUS-39&quot;&gt;&#10;          &lt;mxGeometry relative=&quot;1&quot; as=&quot;geometry&quot; /&gt;&#10;        &lt;/mxCell&gt;&#10;        &lt;mxCell id=&quot;IEez8AGFJPIhpADy_OUS-13&quot; value=&quot;&quot; style=&quot;image;points=[];aspect=fixed;html=1;align=center;shadow=0;dashed=0;image=img/lib/allied_telesis/computer_and_terminals/Personal_Computer.svg;&quot; vertex=&quot;1&quot; parent=&quot;1&quot;&gt;&#10;          &lt;mxGeometry x=&quot;90&quot; y=&quot;310&quot; width=&quot;45.6&quot; height=&quot;61.800000000000004&quot; as=&quot;geometry&quot; /&gt;&#10;        &lt;/mxCell&gt;&#10;        &lt;mxCell id=&quot;IEez8AGFJPIhpADy_OUS-14&quot; value=&quot;&quot; style=&quot;image;points=[];aspect=fixed;html=1;align=center;shadow=0;dashed=0;image=img/lib/allied_telesis/computer_and_terminals/Personal_Computer.svg;&quot; vertex=&quot;1&quot; parent=&quot;1&quot;&gt;&#10;          &lt;mxGeometry x=&quot;170&quot; y=&quot;310&quot; width=&quot;45.6&quot; height=&quot;61.800000000000004&quot; as=&quot;geometry&quot; /&gt;&#10;        &lt;/mxCell&gt;&#10;        &lt;mxCell id=&quot;IEez8AGFJPIhpADy_OUS-48&quot; value=&quot;&quot; style=&quot;edgeStyle=orthogonalEdgeStyle;rounded=0;orthogonalLoop=1;jettySize=auto;html=1;&quot; edge=&quot;1&quot; parent=&quot;1&quot; source=&quot;IEez8AGFJPIhpADy_OUS-15&quot; target=&quot;IEez8AGFJPIhpADy_OUS-38&quot;&gt;&#10;          &lt;mxGeometry relative=&quot;1&quot; as=&quot;geometry&quot; /&gt;&#10;        &lt;/mxCell&gt;&#10;        &lt;mxCell id=&quot;IEez8AGFJPIhpADy_OUS-15&quot; value=&quot;&quot; style=&quot;image;points=[];aspect=fixed;html=1;align=center;shadow=0;dashed=0;image=img/lib/allied_telesis/computer_and_terminals/Personal_Computer.svg;&quot; vertex=&quot;1&quot; parent=&quot;1&quot;&gt;&#10;          &lt;mxGeometry x=&quot;250&quot; y=&quot;310&quot; width=&quot;45.6&quot; height=&quot;61.800000000000004&quot; as=&quot;geometry&quot; /&gt;&#10;        &lt;/mxCell&gt;&#10;        &lt;mxCell id=&quot;IEez8AGFJPIhpADy_OUS-40&quot; value=&quot;&quot; style=&quot;edgeStyle=orthogonalEdgeStyle;rounded=0;orthogonalLoop=1;jettySize=auto;html=1;&quot; edge=&quot;1&quot; parent=&quot;1&quot; source=&quot;IEez8AGFJPIhpADy_OUS-16&quot; target=&quot;IEez8AGFJPIhpADy_OUS-38&quot;&gt;&#10;          &lt;mxGeometry relative=&quot;1&quot; as=&quot;geometry&quot; /&gt;&#10;        &lt;/mxCell&gt;&#10;        &lt;mxCell id=&quot;IEez8AGFJPIhpADy_OUS-16&quot; value=&quot;&quot; style=&quot;image;points=[];aspect=fixed;html=1;align=center;shadow=0;dashed=0;image=img/lib/allied_telesis/computer_and_terminals/Personal_Computer.svg;&quot; vertex=&quot;1&quot; parent=&quot;1&quot;&gt;&#10;          &lt;mxGeometry x=&quot;330&quot; y=&quot;310&quot; width=&quot;45.6&quot; height=&quot;61.800000000000004&quot; as=&quot;geometry&quot; /&gt;&#10;        &lt;/mxCell&gt;&#10;        &lt;mxCell id=&quot;IEez8AGFJPIhpADy_OUS-17&quot; value=&quot;&quot; style=&quot;fontColor=#0066CC;verticalAlign=top;verticalLabelPosition=bottom;labelPosition=center;align=center;html=1;outlineConnect=0;fillColor=#CCCCCC;strokeColor=#6881B3;gradientColor=none;gradientDirection=north;strokeWidth=2;shape=mxgraph.networks.video_projector;&quot; vertex=&quot;1&quot; parent=&quot;1&quot;&gt;&#10;          &lt;mxGeometry x=&quot;530&quot; y=&quot;270&quot; width=&quot;100&quot; height=&quot;35&quot; as=&quot;geometry&quot; /&gt;&#10;        &lt;/mxCell&gt;&#10;        &lt;mxCell id=&quot;IEez8AGFJPIhpADy_OUS-35&quot; value=&quot;&quot; style=&quot;sketch=0;pointerEvents=1;shadow=0;dashed=0;html=1;strokeColor=none;fillColor=#434445;aspect=fixed;labelPosition=center;verticalLabelPosition=bottom;verticalAlign=top;align=center;outlineConnect=0;shape=mxgraph.vvd.ethernet_port;&quot; vertex=&quot;1&quot; parent=&quot;1&quot;&gt;&#10;          &lt;mxGeometry x=&quot;217.5&quot; y=&quot;127.5&quot; width=&quot;25&quot; height=&quot;25&quot; as=&quot;geometry&quot; /&gt;&#10;        &lt;/mxCell&gt;&#10;        &lt;mxCell id=&quot;IEez8AGFJPIhpADy_OUS-37&quot; value=&quot;&quot; style=&quot;sketch=0;pointerEvents=1;shadow=0;dashed=0;html=1;strokeColor=none;fillColor=#434445;aspect=fixed;labelPosition=center;verticalLabelPosition=bottom;verticalAlign=top;align=center;outlineConnect=0;shape=mxgraph.vvd.ethernet_port;&quot; vertex=&quot;1&quot; parent=&quot;1&quot;&gt;&#10;          &lt;mxGeometry x=&quot;410&quot; y=&quot;127.5&quot; width=&quot;25&quot; height=&quot;25&quot; as=&quot;geometry&quot; /&gt;&#10;        &lt;/mxCell&gt;&#10;        &lt;mxCell id=&quot;IEez8AGFJPIhpADy_OUS-61&quot; value=&quot;&quot; style=&quot;edgeStyle=orthogonalEdgeStyle;rounded=0;orthogonalLoop=1;jettySize=auto;html=1;&quot; edge=&quot;1&quot; parent=&quot;1&quot; source=&quot;IEez8AGFJPIhpADy_OUS-38&quot; target=&quot;IEez8AGFJPIhpADy_OUS-26&quot;&gt;&#10;          &lt;mxGeometry relative=&quot;1&quot; as=&quot;geometry&quot; /&gt;&#10;        &lt;/mxCell&gt;&#10;        &lt;mxCell id=&quot;IEez8AGFJPIhpADy_OUS-63&quot; value=&quot;&quot; style=&quot;edgeStyle=orthogonalEdgeStyle;rounded=0;orthogonalLoop=1;jettySize=auto;html=1;&quot; edge=&quot;1&quot; parent=&quot;1&quot; source=&quot;IEez8AGFJPIhpADy_OUS-38&quot; target=&quot;IEez8AGFJPIhpADy_OUS-26&quot;&gt;&#10;          &lt;mxGeometry relative=&quot;1&quot; as=&quot;geometry&quot; /&gt;&#10;        &lt;/mxCell&gt;&#10;        &lt;mxCell id=&quot;IEez8AGFJPIhpADy_OUS-38&quot; value=&quot;&quot; style=&quot;sketch=0;pointerEvents=1;shadow=0;dashed=0;html=1;strokeColor=none;fillColor=#434445;aspect=fixed;labelPosition=center;verticalLabelPosition=bottom;verticalAlign=top;align=center;outlineConnect=0;shape=mxgraph.vvd.ethernet_port;&quot; vertex=&quot;1&quot; parent=&quot;1&quot;&gt;&#10;          &lt;mxGeometry x=&quot;410&quot; y=&quot;367.5&quot; width=&quot;25&quot; height=&quot;25&quot; as=&quot;geometry&quot; /&gt;&#10;        &lt;/mxCell&gt;&#10;        &lt;mxCell id=&quot;IEez8AGFJPIhpADy_OUS-39&quot; value=&quot;&quot; style=&quot;sketch=0;pointerEvents=1;shadow=0;dashed=0;html=1;strokeColor=none;fillColor=#434445;aspect=fixed;labelPosition=center;verticalLabelPosition=bottom;verticalAlign=top;align=center;outlineConnect=0;shape=mxgraph.vvd.ethernet_port;&quot; vertex=&quot;1&quot; parent=&quot;1&quot;&gt;&#10;          &lt;mxGeometry x=&quot;217.5&quot; y=&quot;367.5&quot; width=&quot;25&quot; height=&quot;25&quot; as=&quot;geometry&quot; /&gt;&#10;        &lt;/mxCell&gt;&#10;        &lt;mxCell id=&quot;IEez8AGFJPIhpADy_OUS-56&quot; value=&quot;&quot; style=&quot;image;points=[];aspect=fixed;html=1;align=center;shadow=0;dashed=0;image=img/lib/allied_telesis/computer_and_terminals/Personal_Computer.svg;&quot; vertex=&quot;1&quot; parent=&quot;1&quot;&gt;&#10;          &lt;mxGeometry x=&quot;616.5999999999999&quot; y=&quot;54.1&quot; width=&quot;45.6&quot; height=&quot;61.800000000000004&quot; as=&quot;geometry&quot; /&gt;&#10;        &lt;/mxCell&gt;&#10;        &lt;mxCell id=&quot;IEez8AGFJPIhpADy_OUS-57&quot; value=&quot;&quot; style=&quot;fontColor=#0066CC;verticalAlign=top;verticalLabelPosition=bottom;labelPosition=center;align=center;html=1;outlineConnect=0;fillColor=#CCCCCC;strokeColor=#6881B3;gradientColor=none;gradientDirection=north;strokeWidth=2;shape=mxgraph.networks.printer;&quot; vertex=&quot;1&quot; parent=&quot;1&quot;&gt;&#10;          &lt;mxGeometry x=&quot;460&quot; y=&quot;340&quot; width=&quot;60&quot; height=&quot;60&quot; as=&quot;geometry&quot; /&gt;&#10;        &lt;/mxCell&gt;&#10;        &lt;mxCell id=&quot;IEez8AGFJPIhpADy_OUS-59&quot; value=&quot;&quot; style=&quot;shape=image;html=1;verticalAlign=top;verticalLabelPosition=bottom;labelBackgroundColor=#ffffff;imageAspect=0;aspect=fixed;image=https://cdn0.iconfinder.com/data/icons/google-material-design-3-0/48/ic_settings_input_hdmi_48px-128.png&quot; vertex=&quot;1&quot; parent=&quot;1&quot;&gt;&#10;          &lt;mxGeometry x=&quot;533&quot; y=&quot;245&quot; width=&quot;25&quot; height=&quot;25&quot; as=&quot;geometry&quot; /&gt;&#10;        &lt;/mxCell&gt;&#10;        &lt;mxCell id=&quot;IEez8AGFJPIhpADy_OUS-64&quot; value=&quot;&quot; style=&quot;endArrow=classic;html=1;rounded=0;&quot; edge=&quot;1&quot; parent=&quot;1&quot;&gt;&#10;          &lt;mxGeometry width=&quot;50&quot; height=&quot;50&quot; relative=&quot;1&quot; as=&quot;geometry&quot;&gt;&#10;            &lt;mxPoint x=&quot;420&quot; y=&quot;400&quot; as=&quot;sourcePoint&quot; /&gt;&#10;            &lt;mxPoint x=&quot;490&quot; y=&quot;410&quot; as=&quot;targetPoint&quot; /&gt;&#10;            &lt;Array as=&quot;points&quot;&gt;&#10;              &lt;mxPoint x=&quot;420&quot; y=&quot;450&quot; /&gt;&#10;              &lt;mxPoint x=&quot;490&quot; y=&quot;450&quot; /&gt;&#10;            &lt;/Array&gt;&#10;          &lt;/mxGeometry&gt;&#10;        &lt;/mxCell&gt;&#10;        &lt;mxCell id=&quot;IEez8AGFJPIhpADy_OUS-65&quot; value=&quot;&quot; style=&quot;shape=image;html=1;verticalAlign=top;verticalLabelPosition=bottom;labelBackgroundColor=#ffffff;imageAspect=0;aspect=fixed;image=https://cdn0.iconfinder.com/data/icons/google-material-design-3-0/48/ic_settings_input_hdmi_48px-128.png;flipV=1;&quot; vertex=&quot;1&quot; parent=&quot;1&quot;&gt;&#10;          &lt;mxGeometry x=&quot;591.6&quot; y=&quot;108.4&quot; width=&quot;25&quot; height=&quot;25&quot; as=&quot;geometry&quot; /&gt;&#10;        &lt;/mxCell&gt;&#10;        &lt;mxCell id=&quot;IEez8AGFJPIhpADy_OUS-66&quot; value=&quot;&quot; style=&quot;endArrow=none;html=1;rounded=0;&quot; edge=&quot;1&quot; parent=&quot;1&quot;&gt;&#10;          &lt;mxGeometry width=&quot;50&quot; height=&quot;50&quot; relative=&quot;1&quot; as=&quot;geometry&quot;&gt;&#10;            &lt;mxPoint x=&quot;544.4&quot; y=&quot;240&quot; as=&quot;sourcePoint&quot; /&gt;&#10;            &lt;mxPoint x=&quot;604.4&quot; y=&quot;140&quot; as=&quot;targetPoint&quot; /&gt;&#10;            &lt;Array as=&quot;points&quot;&gt;&#10;              &lt;mxPoint x=&quot;544.4&quot; y=&quot;210&quot; /&gt;&#10;              &lt;mxPoint x=&quot;604.4&quot; y=&quot;210&quot; /&gt;&#10;            &lt;/Array&gt;&#10;          &lt;/mxGeometry&gt;&#10;        &lt;/mxCell&gt;&#10;        &lt;mxCell id=&quot;IEez8AGFJPIhpADy_OUS-67&quot; value=&quot;&quot; style=&quot;shape=image;html=1;verticalAlign=top;verticalLabelPosition=bottom;labelBackgroundColor=#ffffff;imageAspect=0;aspect=fixed;image=https://cdn4.iconfinder.com/data/icons/success-filloutline/64/board-stats-report-presentation-diagram-128.png&quot; vertex=&quot;1&quot; parent=&quot;1&quot;&gt;&#10;          &lt;mxGeometry x=&quot;670&quot; y=&quot;223.5&quot; width=&quot;128&quot; height=&quot;128&quot; as=&quot;geometry&quot; /&gt;&#10;        &lt;/mxCell&gt;&#10;      &lt;/root&gt;&#10;    &lt;/mxGraphModel&gt;&#10;  &lt;/diagram&gt;&#10;&lt;/mxfile&gt;&#10;" resource="https://app.diagrams.net/?src=about#HShadient%2FDiagrams%2Fmain%2Freseau.drawio.svg"><defs/><g><rect x="0" y="0" width="830" height="520" fill="none" stroke="none" pointer-events="all"/><rect x="574.4" y="50" width="130" height="70" fill="rgb(255, 255, 255)" stroke="rgb(0, 0, 0)" pointer-events="all"/><rect x="574.4" y="50" width="14.44" height="9.8" fill="none" stroke="rgb(0, 0, 0)" pointer-events="all"/><rect x="574.4" y="110.2" width="14.44" height="9.8" fill="none" stroke="rgb(0, 0, 0)" pointer-events="all"/><rect x="689.96" y="50" width="14.44" height="9.8" fill="none" stroke="rgb(0, 0, 0)" pointer-events="all"/><rect x="689.96" y="110.2" width="14.44" height="9.8" fill="none" stroke="rgb(0, 0, 0)" pointer-events="all"/><rect x="60" y="120" width="340" height="100" fill="rgb(255, 255, 255)" stroke="rgb(0, 0, 0)" pointer-events="all"/><rect x="60" y="120" width="37.78" height="14" fill="none" stroke="rgb(0, 0, 0)" pointer-events="all"/><rect x="60" y="206" width="37.78" height="14" fill="none" stroke="rgb(0, 0, 0)" pointer-events="all"/><rect x="362.22" y="120" width="37.78" height="14" fill="none" stroke="rgb(0, 0, 0)" pointer-events="all"/><rect x="362.22" y="206" width="37.78" height="14" fill="none" stroke="rgb(0, 0, 0)" pointer-events="all"/><rect x="60" y="300" width="340" height="160" fill="rgb(255, 255, 255)" stroke="rgb(0, 0, 0)" pointer-events="all"/><rect x="60" y="300" width="37.78" height="22.4" fill="none" stroke="rgb(0, 0, 0)" pointer-events="all"/><rect x="60" y="437.6" width="37.78" height="22.4" fill="none" stroke="rgb(0, 0, 0)" pointer-events="all"/><rect x="362.22" y="300" width="37.78" height="22.4" fill="none" stroke="rgb(0, 0, 0)" pointer-events="all"/><rect x="362.22" y="437.6" width="37.78" height="22.4" fill="none" stroke="rgb(0, 0, 0)" pointer-events="all"/><path d="M 135.6 180.9 L 176.6 180.9 L 176.6 140 L 211.13 140" fill="none" stroke="rgb(0, 0, 0)" stroke-miterlimit="10" pointer-events="stroke"/><path d="M 216.38 140 L 209.38 143.5 L 211.13 140 L 209.38 136.5 Z" fill="rgb(0, 0, 0)" stroke="rgb(0, 0, 0)" stroke-miterlimit="10" pointer-events="all"/><image x="89.5" y="149.5" width="45.6" height="61.8" xlink:href="https://app.diagrams.net/img/lib/allied_telesis/computer_and_terminals/Personal_Computer.svg"/><image x="169.5" y="149.5" width="45.6" height="61.8" xlink:href="https://app.diagrams.net/img/lib/allied_telesis/computer_and_terminals/Personal_Computer.svg"/><path d="M 295.6 180.9 L 352.8 180.9 L 352.8 140 L 403.63 140" fill="none" stroke="rgb(0, 0, 0)" stroke-miterlimit="10" pointer-events="stroke"/><path d="M 408.88 140 L 401.88 143.5 L 403.63 140 L 401.88 136.5 Z" fill="rgb(0, 0, 0)" stroke="rgb(0, 0, 0)" stroke-miterlimit="10" pointer-events="all"/><image x="249.5" y="149.5" width="45.6" height="61.8" xlink:href="https://app.diagrams.net/img/lib/allied_telesis/computer_and_terminals/Personal_Computer.svg"/><path d="M 375.6 180.9 L 395.6 180.9 L 395.6 140 L 403.63 140" fill="none" stroke="rgb(0, 0, 0)" stroke-miterlimit="10" pointer-events="stroke"/><path d="M 408.88 140 L 401.88 143.5 L 403.63 140 L 401.88 136.5 Z" fill="rgb(0, 0, 0)" stroke="rgb(0, 0, 0)" stroke-miterlimit="10" pointer-events="all"/><image x="329.5" y="149.5" width="45.6" height="61.8" xlink:href="https://app.diagrams.net/img/lib/allied_telesis/computer_and_terminals/Personal_Computer.svg"/><path d="M 135.6 420.9 L 176.6 420.9 L 176.6 380 L 211.13 380" fill="none" stroke="rgb(0, 0, 0)" stroke-miterlimit="10" pointer-events="stroke"/><path d="M 216.38 380 L 209.38 383.5 L 211.13 380 L 209.38 376.5 Z" fill="rgb(0, 0, 0)" stroke="rgb(0, 0, 0)" stroke-miterlimit="10" pointer-events="all"/><image x="89.5" y="389.5" width="45.6" height="61.8" xlink:href="https://app.diagrams.net/img/lib/allied_telesis/computer_and_terminals/Personal_Computer.svg"/><image x="169.5" y="389.5" width="45.6" height="61.8" xlink:href="https://app.diagrams.net/img/lib/allied_telesis/computer_and_terminals/Personal_Computer.svg"/><path d="M 295.6 420.9 L 352.8 420.9 L 352.8 380 L 403.63 380" fill="none" stroke="rgb(0, 0, 0)" stroke-miterlimit="10" pointer-events="stroke"/><path d="M 408.88 380 L 401.88 383.5 L 403.63 380 L 401.88 376.5 Z" fill="rgb(0, 0, 0)" stroke="rgb(0, 0, 0)" stroke-miterlimit="10" pointer-events="all"/><image x="249.5" y="389.5" width="45.6" height="61.8" xlink:href="https://app.diagrams.net/img/lib/allied_telesis/computer_and_terminals/Personal_Computer.svg"/><path d="M 375.6 420.9 L 395.6 420.9 L 395.6 380 L 403.63 380" fill="none" stroke="rgb(0, 0, 0)" stroke-miterlimit="10" pointer-events="stroke"/><path d="M 408.88 380 L 401.88 383.5 L 403.63 380 L 401.88 376.5 Z" fill="rgb(0, 0, 0)" stroke="rgb(0, 0, 0)" stroke-miterlimit="10" pointer-events="all"/><image x="329.5" y="389.5" width="45.6" height="61.8" xlink:href="https://app.diagrams.net/img/lib/allied_telesis/computer_and_terminals/Personal_Computer.svg"/><path d="M 135.6 340.9 L 176.6 340.9 L 176.6 380 L 211.13 380" fill="none" stroke="rgb(0, 0, 0)" stroke-miterlimit="10" pointer-events="stroke"/><path d="M 216.38 380 L 209.38 383.5 L 211.13 380 L 209.38 376.5 Z" fill="rgb(0, 0, 0)" stroke="rgb(0, 0, 0)" stroke-miterlimit="10" pointer-events="all"/><image x="89.5" y="309.5" width="45.6" height="61.8" xlink:href="https://app.diagrams.net/img/lib/allied_telesis/computer_and_terminals/Personal_Computer.svg"/><image x="169.5" y="309.5" width="45.6" height="61.8" xlink:href="https://app.diagrams.net/img/lib/allied_telesis/computer_and_terminals/Personal_Computer.svg"/><path d="M 295.6 340.9 L 352.8 340.9 L 352.8 380 L 403.63 380" fill="none" stroke="rgb(0, 0, 0)" stroke-miterlimit="10" pointer-events="stroke"/><path d="M 408.88 380 L 401.88 383.5 L 403.63 380 L 401.88 376.5 Z" fill="rgb(0, 0, 0)" stroke="rgb(0, 0, 0)" stroke-miterlimit="10" pointer-events="all"/><image x="249.5" y="309.5" width="45.6" height="61.8" xlink:href="https://app.diagrams.net/img/lib/allied_telesis/computer_and_terminals/Personal_Computer.svg"/><path d="M 375.6 340.9 L 395.6 340.9 L 395.6 380 L 403.63 380" fill="none" stroke="rgb(0, 0, 0)" stroke-miterlimit="10" pointer-events="stroke"/><path d="M 408.88 380 L 401.88 383.5 L 403.63 380 L 401.88 376.5 Z" fill="rgb(0, 0, 0)" stroke="rgb(0, 0, 0)" stroke-miterlimit="10" pointer-events="all"/><image x="329.5" y="309.5" width="45.6" height="61.8" xlink:href="https://app.diagrams.net/img/lib/allied_telesis/computer_and_terminals/Personal_Computer.svg"/><rect x="530" y="275.15" width="100" height="25.74" rx="4.12" ry="4.12" fill="#cccccc" stroke="#6881b3" stroke-width="2" pointer-events="all"/><ellipse cx="600" cy="286.47" rx="16" ry="16.470588235294116" fill="#cccccc" stroke="#6881b3" stroke-width="2" pointer-events="all"/><rect x="537" y="300.88" width="8" height="4.12" fill="#cccccc" stroke="#6881b3" stroke-width="2" pointer-events="all"/><rect x="615" y="300.88" width="8" height="4.12" fill="#cccccc" stroke="#6881b3" stroke-width="2" pointer-events="all"/><ellipse cx="622" cy="288.53" rx="2" ry="2.0588235294117645" fill="#ffffff" stroke="none" pointer-events="all"/><rect x="538" y="278.75" width="40" height="3.09" fill="#ffffff" stroke="none" pointer-events="all"/><ellipse cx="622" cy="281.32" rx="2" ry="2.0588235294117645" fill="#ffffff" stroke="none" pointer-events="all"/><rect x="538" y="283.9" width="40" height="3.09" fill="#ffffff" stroke="none" pointer-events="all"/><rect x="538" y="289.04" width="40" height="3.09" fill="#ffffff" stroke="none" pointer-events="all"/><rect x="538" y="294.19" width="40" height="3.09" fill="#ffffff" stroke="none" pointer-events="all"/><ellipse cx="600" cy="286.47" rx="13" ry="13.38235294117647" fill="#ffffff" stroke="none" pointer-events="all"/><rect x="217.5" y="127.5" width="25" height="25" fill="none" stroke="none" pointer-events="all"/><path d="M 236.48 134.67 C 236.33 134.67 236.18 134.73 236.08 134.84 C 235.97 134.95 235.91 135.1 235.91 135.25 L 235.91 137.54 C 235.91 137.86 236.17 138.11 236.49 138.11 C 236.81 138.11 237.07 137.86 237.07 137.54 L 237.07 135.25 C 237.07 135.1 237.01 134.95 236.9 134.83 C 236.79 134.72 236.64 134.66 236.48 134.67 Z M 233.43 134.67 C 233.28 134.67 233.13 134.73 233.02 134.84 C 232.92 134.95 232.86 135.1 232.86 135.25 L 232.86 137.54 C 232.86 137.86 233.12 138.11 233.44 138.11 C 233.76 138.11 234.01 137.86 234.01 137.54 L 234.01 135.25 C 234.02 135.1 233.96 134.95 233.85 134.84 C 233.73 134.73 233.58 134.66 233.43 134.67 Z M 230.38 134.67 C 230.22 134.67 230.08 134.73 229.97 134.84 C 229.86 134.95 229.81 135.1 229.81 135.25 L 229.81 137.54 C 229.81 137.86 230.07 138.11 230.39 138.11 C 230.7 138.11 230.96 137.86 230.96 137.54 L 230.96 135.25 C 230.96 135.1 230.9 134.95 230.79 134.83 C 230.68 134.72 230.53 134.66 230.38 134.67 Z M 227.32 134.67 C 227.17 134.67 227.02 134.73 226.92 134.84 C 226.81 134.95 226.75 135.1 226.76 135.25 L 226.76 137.54 C 226.76 137.86 227.01 138.11 227.33 138.11 C 227.65 138.11 227.91 137.86 227.91 137.54 L 227.91 135.25 C 227.91 135.1 227.85 134.95 227.74 134.83 C 227.63 134.72 227.48 134.66 227.32 134.67 Z M 224.27 134.67 C 224.12 134.67 223.97 134.73 223.87 134.84 C 223.76 134.95 223.7 135.1 223.7 135.25 L 223.7 137.54 C 223.7 137.86 223.96 138.11 224.28 138.11 C 224.6 138.11 224.86 137.86 224.86 137.54 L 224.86 135.25 C 224.86 135.1 224.8 134.95 224.69 134.84 C 224.58 134.73 224.43 134.66 224.27 134.67 Z M 220.87 132.5 L 220.87 143.76 L 221.49 143.76 L 224.01 143.76 L 224.01 145.85 L 226.05 145.85 L 226.05 148.25 L 234.13 148.25 L 234.13 145.85 L 236.34 145.85 L 236.34 143.76 L 239.37 143.76 L 239.37 132.5 Z M 222.1 133.73 L 238.14 133.73 L 238.14 142.53 L 235.11 142.53 L 235.11 144.62 L 232.9 144.62 L 232.9 147.02 L 227.28 147.02 L 227.28 144.62 L 225.24 144.62 L 225.24 142.53 L 222.1 142.53 Z M 219.51 127.5 C 218.41 127.5 217.5 128.41 217.5 129.51 L 217.5 150.49 C 217.5 151.6 218.41 152.5 219.51 152.5 L 240.49 152.5 C 241.59 152.5 242.5 151.6 242.5 150.49 L 242.5 129.51 C 242.5 128.41 241.59 127.5 240.49 127.5 Z M 219.51 128.73 L 240.49 128.73 C 240.93 128.73 241.27 129.06 241.27 129.51 L 241.27 150.49 C 241.27 150.94 240.93 151.27 240.49 151.27 L 219.51 151.27 C 219.07 151.27 218.73 150.94 218.73 150.49 L 218.73 129.51 C 218.73 129.06 219.07 128.73 219.51 128.73 Z" fill="#434445" stroke="none" pointer-events="all"/><rect x="410" y="127.5" width="25" height="25" fill="none" stroke="none" pointer-events="all"/><path d="M 428.98 134.67 C 428.83 134.67 428.68 134.73 428.58 134.84 C 428.47 134.95 428.41 135.1 428.41 135.25 L 428.41 137.54 C 428.41 137.86 428.67 138.11 428.99 138.11 C 429.31 138.11 429.57 137.86 429.57 137.54 L 429.57 135.25 C 429.57 135.1 429.51 134.95 429.4 134.83 C 429.29 134.72 429.14 134.66 428.98 134.67 Z M 425.93 134.67 C 425.78 134.67 425.63 134.73 425.52 134.84 C 425.42 134.95 425.36 135.1 425.36 135.25 L 425.36 137.54 C 425.36 137.86 425.62 138.11 425.94 138.11 C 426.26 138.11 426.51 137.86 426.51 137.54 L 426.51 135.25 C 426.52 135.1 426.46 134.95 426.35 134.84 C 426.23 134.73 426.08 134.66 425.93 134.67 Z M 422.88 134.67 C 422.72 134.67 422.58 134.73 422.47 134.84 C 422.36 134.95 422.31 135.1 422.31 135.25 L 422.31 137.54 C 422.31 137.86 422.57 138.11 422.89 138.11 C 423.2 138.11 423.46 137.86 423.46 137.54 L 423.46 135.25 C 423.46 135.1 423.4 134.95 423.29 134.83 C 423.18 134.72 423.03 134.66 422.88 134.67 Z M 419.82 134.67 C 419.67 134.67 419.52 134.73 419.42 134.84 C 419.31 134.95 419.25 135.1 419.26 135.25 L 419.26 137.54 C 419.26 137.86 419.51 138.11 419.83 138.11 C 420.15 138.11 420.41 137.86 420.41 137.54 L 420.41 135.25 C 420.41 135.1 420.35 134.95 420.24 134.83 C 420.13 134.72 419.98 134.66 419.82 134.67 Z M 416.77 134.67 C 416.62 134.67 416.47 134.73 416.37 134.84 C 416.26 134.95 416.2 135.1 416.2 135.25 L 416.2 137.54 C 416.2 137.86 416.46 138.11 416.78 138.11 C 417.1 138.11 417.36 137.86 417.36 137.54 L 417.36 135.25 C 417.36 135.1 417.3 134.95 417.19 134.84 C 417.08 134.73 416.93 134.66 416.77 134.67 Z M 413.37 132.5 L 413.37 143.76 L 413.99 143.76 L 416.51 143.76 L 416.51 145.85 L 418.55 145.85 L 418.55 148.25 L 426.63 148.25 L 426.63 145.85 L 428.84 145.85 L 428.84 143.76 L 431.87 143.76 L 431.87 132.5 Z M 414.6 133.73 L 430.64 133.73 L 430.64 142.53 L 427.61 142.53 L 427.61 144.62 L 425.4 144.62 L 425.4 147.02 L 419.78 147.02 L 419.78 144.62 L 417.74 144.62 L 417.74 142.53 L 414.6 142.53 Z M 412.01 127.5 C 410.91 127.5 410 128.41 410 129.51 L 410 150.49 C 410 151.6 410.91 152.5 412.01 152.5 L 432.99 152.5 C 434.09 152.5 435 151.6 435 150.49 L 435 129.51 C 435 128.41 434.09 127.5 432.99 127.5 Z M 412.01 128.73 L 432.99 128.73 C 433.43 128.73 433.77 129.06 433.77 129.51 L 433.77 150.49 C 433.77 150.94 433.43 151.27 432.99 151.27 L 412.01 151.27 C 411.57 151.27 411.23 150.94 411.23 150.49 L 411.23 129.51 C 411.23 129.06 411.57 128.73 412.01 128.73 Z" fill="#434445" stroke="none" pointer-events="all"/><path d="M 410 380 L 390 380 L 420 380 L 406.37 380" fill="none" stroke="rgb(0, 0, 0)" stroke-miterlimit="10" pointer-events="stroke"/><path d="M 401.12 380 L 408.12 376.5 L 406.37 380 L 408.12 383.5 Z" fill="rgb(0, 0, 0)" stroke="rgb(0, 0, 0)" stroke-miterlimit="10" pointer-events="all"/><path d="M 410 380 L 390 380 L 420 380 L 406.37 380" fill="none" stroke="rgb(0, 0, 0)" stroke-miterlimit="10" pointer-events="stroke"/><path d="M 401.12 380 L 408.12 376.5 L 406.37 380 L 408.12 383.5 Z" fill="rgb(0, 0, 0)" stroke="rgb(0, 0, 0)" stroke-miterlimit="10" pointer-events="all"/><rect x="410" y="367.5" width="25" height="25" fill="none" stroke="none" pointer-events="all"/><path d="M 428.98 374.67 C 428.83 374.67 428.68 374.73 428.58 374.84 C 428.47 374.95 428.41 375.1 428.41 375.25 L 428.41 377.54 C 428.41 377.86 428.67 378.11 428.99 378.11 C 429.31 378.11 429.57 377.86 429.57 377.54 L 429.57 375.25 C 429.57 375.1 429.51 374.95 429.4 374.83 C 429.29 374.72 429.14 374.66 428.98 374.67 Z M 425.93 374.67 C 425.78 374.67 425.63 374.73 425.52 374.84 C 425.42 374.95 425.36 375.1 425.36 375.25 L 425.36 377.54 C 425.36 377.86 425.62 378.11 425.94 378.11 C 426.26 378.11 426.51 377.86 426.51 377.54 L 426.51 375.25 C 426.52 375.1 426.46 374.95 426.35 374.84 C 426.23 374.73 426.08 374.66 425.93 374.67 Z M 422.88 374.67 C 422.72 374.67 422.58 374.73 422.47 374.84 C 422.36 374.95 422.31 375.1 422.31 375.25 L 422.31 377.54 C 422.31 377.86 422.57 378.11 422.89 378.11 C 423.2 378.11 423.46 377.86 423.46 377.54 L 423.46 375.25 C 423.46 375.1 423.4 374.95 423.29 374.83 C 423.18 374.72 423.03 374.66 422.88 374.67 Z M 419.82 374.67 C 419.67 374.67 419.52 374.73 419.42 374.84 C 419.31 374.95 419.25 375.1 419.26 375.25 L 419.26 377.54 C 419.26 377.86 419.51 378.11 419.83 378.11 C 420.15 378.11 420.41 377.86 420.41 377.54 L 420.41 375.25 C 420.41 375.1 420.35 374.95 420.24 374.83 C 420.13 374.72 419.98 374.66 419.82 374.67 Z M 416.77 374.67 C 416.62 374.67 416.47 374.73 416.37 374.84 C 416.26 374.95 416.2 375.1 416.2 375.25 L 416.2 377.54 C 416.2 377.86 416.46 378.11 416.78 378.11 C 417.1 378.11 417.36 377.86 417.36 377.54 L 417.36 375.25 C 417.36 375.1 417.3 374.95 417.19 374.84 C 417.08 374.73 416.93 374.66 416.77 374.67 Z M 413.37 372.5 L 413.37 383.76 L 413.99 383.76 L 416.51 383.76 L 416.51 385.85 L 418.55 385.85 L 418.55 388.25 L 426.63 388.25 L 426.63 385.85 L 428.84 385.85 L 428.84 383.76 L 431.87 383.76 L 431.87 372.5 Z M 414.6 373.73 L 430.64 373.73 L 430.64 382.53 L 427.61 382.53 L 427.61 384.62 L 425.4 384.62 L 425.4 387.02 L 419.78 387.02 L 419.78 384.62 L 417.74 384.62 L 417.74 382.53 L 414.6 382.53 Z M 412.01 367.5 C 410.91 367.5 410 368.41 410 369.51 L 410 390.49 C 410 391.6 410.91 392.5 412.01 392.5 L 432.99 392.5 C 434.09 392.5 435 391.6 435 390.49 L 435 369.51 C 435 368.41 434.09 367.5 432.99 367.5 Z M 412.01 368.73 L 432.99 368.73 C 433.43 368.73 433.77 369.06 433.77 369.51 L 433.77 390.49 C 433.77 390.94 433.43 391.27 432.99 391.27 L 412.01 391.27 C 411.57 391.27 411.23 390.94 411.23 390.49 L 411.23 369.51 C 411.23 369.06 411.57 368.73 412.01 368.73 Z" fill="#434445" stroke="none" pointer-events="all"/><rect x="217.5" y="367.5" width="25" height="25" fill="none" stroke="none" pointer-events="all"/><path d="M 236.48 374.67 C 236.33 374.67 236.18 374.73 236.08 374.84 C 235.97 374.95 235.91 375.1 235.91 375.25 L 235.91 377.54 C 235.91 377.86 236.17 378.11 236.49 378.11 C 236.81 378.11 237.07 377.86 237.07 377.54 L 237.07 375.25 C 237.07 375.1 237.01 374.95 236.9 374.83 C 236.79 374.72 236.64 374.66 236.48 374.67 Z M 233.43 374.67 C 233.28 374.67 233.13 374.73 233.02 374.84 C 232.92 374.95 232.86 375.1 232.86 375.25 L 232.86 377.54 C 232.86 377.86 233.12 378.11 233.44 378.11 C 233.76 378.11 234.01 377.86 234.01 377.54 L 234.01 375.25 C 234.02 375.1 233.96 374.95 233.85 374.84 C 233.73 374.73 233.58 374.66 233.43 374.67 Z M 230.38 374.67 C 230.22 374.67 230.08 374.73 229.97 374.84 C 229.86 374.95 229.81 375.1 229.81 375.25 L 229.81 377.54 C 229.81 377.86 230.07 378.11 230.39 378.11 C 230.7 378.11 230.96 377.86 230.96 377.54 L 230.96 375.25 C 230.96 375.1 230.9 374.95 230.79 374.83 C 230.68 374.72 230.53 374.66 230.38 374.67 Z M 227.32 374.67 C 227.17 374.67 227.02 374.73 226.92 374.84 C 226.81 374.95 226.75 375.1 226.76 375.25 L 226.76 377.54 C 226.76 377.86 227.01 378.11 227.33 378.11 C 227.65 378.11 227.91 377.86 227.91 377.54 L 227.91 375.25 C 227.91 375.1 227.85 374.95 227.74 374.83 C 227.63 374.72 227.48 374.66 227.32 374.67 Z M 224.27 374.67 C 224.12 374.67 223.97 374.73 223.87 374.84 C 223.76 374.95 223.7 375.1 223.7 375.25 L 223.7 377.54 C 223.7 377.86 223.96 378.11 224.28 378.11 C 224.6 378.11 224.86 377.86 224.86 377.54 L 224.86 375.25 C 224.86 375.1 224.8 374.95 224.69 374.84 C 224.58 374.73 224.43 374.66 224.27 374.67 Z M 220.87 372.5 L 220.87 383.76 L 221.49 383.76 L 224.01 383.76 L 224.01 385.85 L 226.05 385.85 L 226.05 388.25 L 234.13 388.25 L 234.13 385.85 L 236.34 385.85 L 236.34 383.76 L 239.37 383.76 L 239.37 372.5 Z M 222.1 373.73 L 238.14 373.73 L 238.14 382.53 L 235.11 382.53 L 235.11 384.62 L 232.9 384.62 L 232.9 387.02 L 227.28 387.02 L 227.28 384.62 L 225.24 384.62 L 225.24 382.53 L 222.1 382.53 Z M 219.51 367.5 C 218.41 367.5 217.5 368.41 217.5 369.51 L 217.5 390.49 C 217.5 391.6 218.41 392.5 219.51 392.5 L 240.49 392.5 C 241.59 392.5 242.5 391.6 242.5 390.49 L 242.5 369.51 C 242.5 368.41 241.59 367.5 240.49 367.5 Z M 219.51 368.73 L 240.49 368.73 C 240.93 368.73 241.27 369.06 241.27 369.51 L 241.27 390.49 C 241.27 390.94 240.93 391.27 240.49 391.27 L 219.51 391.27 C 219.07 391.27 218.73 390.94 218.73 390.49 L 218.73 369.51 C 218.73 369.06 219.07 368.73 219.51 368.73 Z" fill="#434445" stroke="none" pointer-events="all"/><image x="616.1" y="53.6" width="45.6" height="61.8" xlink:href="https://app.diagrams.net/img/lib/allied_telesis/computer_and_terminals/Personal_Computer.svg"/><rect x="460" y="364" width="60" height="24" fill="#cccccc" stroke="#6881b3" stroke-width="1.2" pointer-events="all"/><rect x="464.8" y="388" width="50.4" height="3.6" fill="#cccccc" stroke="#6881b3" stroke-width="1.2" pointer-events="all"/><rect x="472" y="340" width="36" height="24" fill="#cccccc" stroke="#6881b3" stroke-width="1.2" pointer-events="all"/><path d="M 508 382 L 514 400 L 466 400 L 472 382 Z M 475 386.8 L 505 386.8 M 473.2 391.6 L 506.8 391.6 M 470.8 396.4 L 509.2 396.4" fill="#cccccc" stroke="#6881b3" stroke-width="1.2" stroke-miterlimit="10" pointer-events="all"/><rect x="466" y="367" width="15" height="1.8" fill="#ffffff" stroke="none" pointer-events="all"/><ellipse cx="511" cy="370" rx="3" ry="3" fill="#ffffff" stroke="none" pointer-events="all"/><image x="532.5" y="244.5" width="25" height="25" xlink:href="https://cdn0.iconfinder.com/data/icons/google-material-design-3-0/48/ic_settings_input_hdmi_48px-128.png" preserveAspectRatio="none"/><path d="M 420 400 L 420 450 L 490 450 L 490 416.37" fill="none" stroke="rgb(0, 0, 0)" stroke-miterlimit="10" pointer-events="stroke"/><path d="M 490 411.12 L 493.5 418.12 L 490 416.37 L 486.5 418.12 Z" fill="rgb(0, 0, 0)" stroke="rgb(0, 0, 0)" stroke-miterlimit="10" pointer-events="all"/><image x="591.1" y="107.9" width="25" height="25" xlink:href="https://cdn0.iconfinder.com/data/icons/google-material-design-3-0/48/ic_settings_input_hdmi_48px-128.png" preserveAspectRatio="none" transform="translate(0,120.9)scale(1,-1)translate(0,-120.9)"/><path d="M 544.4 240 L 544.4 210 L 604.4 210 L 604.4 140" fill="none" stroke="rgb(0, 0, 0)" stroke-miterlimit="10" pointer-events="stroke"/><image x="669.5" y="223" width="128" height="128" xlink:href="https://cdn4.iconfinder.com/data/icons/success-filloutline/64/board-stats-report-presentation-diagram-128.png" preserveAspectRatio="none"/></g></svg>