<?xml version="1.0" encoding="UTF-8"?>
<!-- Do not edit this file with editors other than diagrams.net -->
<!DOCTYPE svg PUBLIC "-//W3C//DTD SVG 1.1//EN" "http://www.w3.org/Graphics/SVG/1.1/DTD/svg11.dtd">
<svg xmlns="http://www.w3.org/2000/svg" xmlns:xlink="http://www.w3.org/1999/xlink" version="1.1" width="739px" height="431px" viewBox="-0.5 -0.5 739 431" content="&lt;mxfile host=&quot;app.diagrams.net&quot; modified=&quot;2023-05-02T09:46:59.522Z&quot; agent=&quot;Mozilla/5.0 (Windows NT 10.0; Win64; x64) AppleWebKit/537.36 (KHTML, like Gecko) Chrome/112.0.0.0 Safari/537.36&quot; etag=&quot;8QhYedEfR8cWqhwOpU1e&quot; version=&quot;21.2.4&quot; type=&quot;github&quot;&gt;&#10;  &lt;diagram name=&quot;Page-1&quot; id=&quot;xwjDph-BTLNEIcGHjNH0&quot;&gt;&#10;    &lt;mxGraphModel dx=&quot;1434&quot; dy=&quot;796&quot; grid=&quot;1&quot; gridSize=&quot;10&quot; guides=&quot;1&quot; tooltips=&quot;1&quot; connect=&quot;1&quot; arrows=&quot;1&quot; fold=&quot;1&quot; page=&quot;1&quot; pageScale=&quot;1&quot; pageWidth=&quot;827&quot; pageHeight=&quot;1169&quot; math=&quot;0&quot; shadow=&quot;0&quot;&gt;&#10;      &lt;root&gt;&#10;        &lt;mxCell id=&quot;0&quot; /&gt;&#10;        &lt;mxCell id=&quot;1&quot; parent=&quot;0&quot; /&gt;&#10;        &lt;mxCell id=&quot;IEez8AGFJPIhpADy_OUS-58&quot; value=&quot;&quot; style=&quot;verticalLabelPosition=bottom;html=1;verticalAlign=top;align=center;shape=mxgraph.floorplan.table;&quot; vertex=&quot;1&quot; parent=&quot;1&quot;&gt;&#10;          &lt;mxGeometry x=&quot;574.4&quot; y=&quot;50&quot; width=&quot;130&quot; height=&quot;70&quot; as=&quot;geometry&quot; /&gt;&#10;        &lt;/mxCell&gt;&#10;        &lt;mxCell id=&quot;IEez8AGFJPIhpADy_OUS-27&quot; value=&quot;&quot; style=&quot;verticalLabelPosition=bottom;html=1;verticalAlign=top;align=center;shape=mxgraph.floorplan.table;&quot; vertex=&quot;1&quot; parent=&quot;1&quot;&gt;&#10;          &lt;mxGeometry x=&quot;60.000000000000014&quot; y=&quot;80&quot; width=&quot;340&quot; height=&quot;160&quot; as=&quot;geometry&quot; /&gt;&#10;        &lt;/mxCell&gt;&#10;        &lt;mxCell id=&quot;IEez8AGFJPIhpADy_OUS-26&quot; value=&quot;&quot; style=&quot;verticalLabelPosition=bottom;html=1;verticalAlign=top;align=center;shape=mxgraph.floorplan.table;&quot; vertex=&quot;1&quot; parent=&quot;1&quot;&gt;&#10;          &lt;mxGeometry x=&quot;60&quot; y=&quot;320&quot; width=&quot;340&quot; height=&quot;160&quot; as=&quot;geometry&quot; /&gt;&#10;        &lt;/mxCell&gt;&#10;        &lt;mxCell id=&quot;IEez8AGFJPIhpADy_OUS-53&quot; value=&quot;&quot; style=&quot;edgeStyle=orthogonalEdgeStyle;rounded=0;orthogonalLoop=1;jettySize=auto;html=1;&quot; edge=&quot;1&quot; parent=&quot;1&quot; source=&quot;IEez8AGFJPIhpADy_OUS-1&quot; target=&quot;IEez8AGFJPIhpADy_OUS-35&quot;&gt;&#10;          &lt;mxGeometry relative=&quot;1&quot; as=&quot;geometry&quot; /&gt;&#10;        &lt;/mxCell&gt;&#10;        &lt;mxCell id=&quot;IEez8AGFJPIhpADy_OUS-1&quot; value=&quot;&quot; style=&quot;image;points=[];aspect=fixed;html=1;align=center;shadow=0;dashed=0;image=img/lib/allied_telesis/computer_and_terminals/Personal_Computer.svg;&quot; vertex=&quot;1&quot; parent=&quot;1&quot;&gt;&#10;          &lt;mxGeometry x=&quot;90&quot; y=&quot;170&quot; width=&quot;45.6&quot; height=&quot;61.800000000000004&quot; as=&quot;geometry&quot; /&gt;&#10;        &lt;/mxCell&gt;&#10;        &lt;mxCell id=&quot;IEez8AGFJPIhpADy_OUS-2&quot; value=&quot;&quot; style=&quot;image;points=[];aspect=fixed;html=1;align=center;shadow=0;dashed=0;image=img/lib/allied_telesis/computer_and_terminals/Personal_Computer.svg;&quot; vertex=&quot;1&quot; parent=&quot;1&quot;&gt;&#10;          &lt;mxGeometry x=&quot;170&quot; y=&quot;170&quot; width=&quot;45.6&quot; height=&quot;61.800000000000004&quot; as=&quot;geometry&quot; /&gt;&#10;        &lt;/mxCell&gt;&#10;        &lt;mxCell id=&quot;IEez8AGFJPIhpADy_OUS-51&quot; value=&quot;&quot; style=&quot;edgeStyle=orthogonalEdgeStyle;rounded=0;orthogonalLoop=1;jettySize=auto;html=1;&quot; edge=&quot;1&quot; parent=&quot;1&quot; source=&quot;IEez8AGFJPIhpADy_OUS-3&quot; target=&quot;IEez8AGFJPIhpADy_OUS-37&quot;&gt;&#10;          &lt;mxGeometry relative=&quot;1&quot; as=&quot;geometry&quot; /&gt;&#10;        &lt;/mxCell&gt;&#10;        &lt;mxCell id=&quot;IEez8AGFJPIhpADy_OUS-3&quot; value=&quot;&quot; style=&quot;image;points=[];aspect=fixed;html=1;align=center;shadow=0;dashed=0;image=img/lib/allied_telesis/computer_and_terminals/Personal_Computer.svg;&quot; vertex=&quot;1&quot; parent=&quot;1&quot;&gt;&#10;          &lt;mxGeometry x=&quot;250&quot; y=&quot;170&quot; width=&quot;45.6&quot; height=&quot;61.800000000000004&quot; as=&quot;geometry&quot; /&gt;&#10;        &lt;/mxCell&gt;&#10;        &lt;mxCell id=&quot;IEez8AGFJPIhpADy_OUS-42&quot; value=&quot;&quot; style=&quot;edgeStyle=orthogonalEdgeStyle;rounded=0;orthogonalLoop=1;jettySize=auto;html=1;&quot; edge=&quot;1&quot; parent=&quot;1&quot; source=&quot;IEez8AGFJPIhpADy_OUS-4&quot; target=&quot;IEez8AGFJPIhpADy_OUS-37&quot;&gt;&#10;          &lt;mxGeometry relative=&quot;1&quot; as=&quot;geometry&quot; /&gt;&#10;        &lt;/mxCell&gt;&#10;        &lt;mxCell id=&quot;IEez8AGFJPIhpADy_OUS-4&quot; value=&quot;&quot; style=&quot;image;points=[];aspect=fixed;html=1;align=center;shadow=0;dashed=0;image=img/lib/allied_telesis/computer_and_terminals/Personal_Computer.svg;&quot; vertex=&quot;1&quot; parent=&quot;1&quot;&gt;&#10;          &lt;mxGeometry x=&quot;330&quot; y=&quot;170&quot; width=&quot;45.6&quot; height=&quot;61.800000000000004&quot; as=&quot;geometry&quot; /&gt;&#10;        &lt;/mxCell&gt;&#10;        &lt;mxCell id=&quot;IEez8AGFJPIhpADy_OUS-52&quot; value=&quot;&quot; style=&quot;edgeStyle=orthogonalEdgeStyle;rounded=0;orthogonalLoop=1;jettySize=auto;html=1;&quot; edge=&quot;1&quot; parent=&quot;1&quot; source=&quot;IEez8AGFJPIhpADy_OUS-5&quot; target=&quot;IEez8AGFJPIhpADy_OUS-35&quot;&gt;&#10;          &lt;mxGeometry relative=&quot;1&quot; as=&quot;geometry&quot; /&gt;&#10;        &lt;/mxCell&gt;&#10;        &lt;mxCell id=&quot;IEez8AGFJPIhpADy_OUS-5&quot; value=&quot;&quot; style=&quot;image;points=[];aspect=fixed;html=1;align=center;shadow=0;dashed=0;image=img/lib/allied_telesis/computer_and_terminals/Personal_Computer.svg;&quot; vertex=&quot;1&quot; parent=&quot;1&quot;&gt;&#10;          &lt;mxGeometry x=&quot;90&quot; y=&quot;90&quot; width=&quot;45.6&quot; height=&quot;61.800000000000004&quot; as=&quot;geometry&quot; /&gt;&#10;        &lt;/mxCell&gt;&#10;        &lt;mxCell id=&quot;IEez8AGFJPIhpADy_OUS-6&quot; value=&quot;&quot; style=&quot;image;points=[];aspect=fixed;html=1;align=center;shadow=0;dashed=0;image=img/lib/allied_telesis/computer_and_terminals/Personal_Computer.svg;&quot; vertex=&quot;1&quot; parent=&quot;1&quot;&gt;&#10;          &lt;mxGeometry x=&quot;170&quot; y=&quot;90&quot; width=&quot;45.6&quot; height=&quot;61.800000000000004&quot; as=&quot;geometry&quot; /&gt;&#10;        &lt;/mxCell&gt;&#10;        &lt;mxCell id=&quot;IEez8AGFJPIhpADy_OUS-50&quot; value=&quot;&quot; style=&quot;edgeStyle=orthogonalEdgeStyle;rounded=0;orthogonalLoop=1;jettySize=auto;html=1;&quot; edge=&quot;1&quot; parent=&quot;1&quot; source=&quot;IEez8AGFJPIhpADy_OUS-7&quot; target=&quot;IEez8AGFJPIhpADy_OUS-37&quot;&gt;&#10;          &lt;mxGeometry relative=&quot;1&quot; as=&quot;geometry&quot; /&gt;&#10;        &lt;/mxCell&gt;&#10;        &lt;mxCell id=&quot;IEez8AGFJPIhpADy_OUS-7&quot; value=&quot;&quot; style=&quot;image;points=[];aspect=fixed;html=1;align=center;shadow=0;dashed=0;image=img/lib/allied_telesis/computer_and_terminals/Personal_Computer.svg;&quot; vertex=&quot;1&quot; parent=&quot;1&quot;&gt;&#10;          &lt;mxGeometry x=&quot;250&quot; y=&quot;90&quot; width=&quot;45.6&quot; height=&quot;61.800000000000004&quot; as=&quot;geometry&quot; /&gt;&#10;        &lt;/mxCell&gt;&#10;        &lt;mxCell id=&quot;IEez8AGFJPIhpADy_OUS-43&quot; value=&quot;&quot; style=&quot;edgeStyle=orthogonalEdgeStyle;rounded=0;orthogonalLoop=1;jettySize=auto;html=1;&quot; edge=&quot;1&quot; parent=&quot;1&quot; source=&quot;IEez8AGFJPIhpADy_OUS-8&quot; target=&quot;IEez8AGFJPIhpADy_OUS-37&quot;&gt;&#10;          &lt;mxGeometry relative=&quot;1&quot; as=&quot;geometry&quot; /&gt;&#10;        &lt;/mxCell&gt;&#10;        &lt;mxCell id=&quot;IEez8AGFJPIhpADy_OUS-8&quot; value=&quot;&quot; style=&quot;image;points=[];aspect=fixed;html=1;align=center;shadow=0;dashed=0;image=img/lib/allied_telesis/computer_and_terminals/Personal_Computer.svg;&quot; vertex=&quot;1&quot; parent=&quot;1&quot;&gt;&#10;          &lt;mxGeometry x=&quot;330&quot; y=&quot;90&quot; width=&quot;45.6&quot; height=&quot;61.800000000000004&quot; as=&quot;geometry&quot; /&gt;&#10;        &lt;/mxCell&gt;&#10;        &lt;mxCell id=&quot;IEez8AGFJPIhpADy_OUS-55&quot; value=&quot;&quot; style=&quot;edgeStyle=orthogonalEdgeStyle;rounded=0;orthogonalLoop=1;jettySize=auto;html=1;&quot; edge=&quot;1&quot; parent=&quot;1&quot; source=&quot;IEez8AGFJPIhpADy_OUS-9&quot; target=&quot;IEez8AGFJPIhpADy_OUS-39&quot;&gt;&#10;          &lt;mxGeometry relative=&quot;1&quot; as=&quot;geometry&quot; /&gt;&#10;        &lt;/mxCell&gt;&#10;        &lt;mxCell id=&quot;IEez8AGFJPIhpADy_OUS-9&quot; value=&quot;&quot; style=&quot;image;points=[];aspect=fixed;html=1;align=center;shadow=0;dashed=0;image=img/lib/allied_telesis/computer_and_terminals/Personal_Computer.svg;&quot; vertex=&quot;1&quot; parent=&quot;1&quot;&gt;&#10;          &lt;mxGeometry x=&quot;90&quot; y=&quot;410&quot; width=&quot;45.6&quot; height=&quot;61.800000000000004&quot; as=&quot;geometry&quot; /&gt;&#10;        &lt;/mxCell&gt;&#10;        &lt;mxCell id=&quot;IEez8AGFJPIhpADy_OUS-10&quot; value=&quot;&quot; style=&quot;image;points=[];aspect=fixed;html=1;align=center;shadow=0;dashed=0;image=img/lib/allied_telesis/computer_and_terminals/Personal_Computer.svg;&quot; vertex=&quot;1&quot; parent=&quot;1&quot;&gt;&#10;          &lt;mxGeometry x=&quot;170&quot; y=&quot;410&quot; width=&quot;45.6&quot; height=&quot;61.800000000000004&quot; as=&quot;geometry&quot; /&gt;&#10;        &lt;/mxCell&gt;&#10;        &lt;mxCell id=&quot;IEez8AGFJPIhpADy_OUS-49&quot; value=&quot;&quot; style=&quot;edgeStyle=orthogonalEdgeStyle;rounded=0;orthogonalLoop=1;jettySize=auto;html=1;&quot; edge=&quot;1&quot; parent=&quot;1&quot; source=&quot;IEez8AGFJPIhpADy_OUS-11&quot; target=&quot;IEez8AGFJPIhpADy_OUS-38&quot;&gt;&#10;          &lt;mxGeometry relative=&quot;1&quot; as=&quot;geometry&quot; /&gt;&#10;        &lt;/mxCell&gt;&#10;        &lt;mxCell id=&quot;IEez8AGFJPIhpADy_OUS-11&quot; value=&quot;&quot; style=&quot;image;points=[];aspect=fixed;html=1;align=center;shadow=0;dashed=0;image=img/lib/allied_telesis/computer_and_terminals/Personal_Computer.svg;&quot; vertex=&quot;1&quot; parent=&quot;1&quot;&gt;&#10;          &lt;mxGeometry x=&quot;250&quot; y=&quot;410&quot; width=&quot;45.6&quot; height=&quot;61.800000000000004&quot; as=&quot;geometry&quot; /&gt;&#10;        &lt;/mxCell&gt;&#10;        &lt;mxCell id=&quot;IEez8AGFJPIhpADy_OUS-41&quot; value=&quot;&quot; style=&quot;edgeStyle=orthogonalEdgeStyle;rounded=0;orthogonalLoop=1;jettySize=auto;html=1;&quot; edge=&quot;1&quot; parent=&quot;1&quot; source=&quot;IEez8AGFJPIhpADy_OUS-12&quot; target=&quot;IEez8AGFJPIhpADy_OUS-38&quot;&gt;&#10;          &lt;mxGeometry relative=&quot;1&quot; as=&quot;geometry&quot; /&gt;&#10;        &lt;/mxCell&gt;&#10;        &lt;mxCell id=&quot;IEez8AGFJPIhpADy_OUS-12&quot; value=&quot;&quot; style=&quot;image;points=[];aspect=fixed;html=1;align=center;shadow=0;dashed=0;image=img/lib/allied_telesis/computer_and_terminals/Personal_Computer.svg;&quot; vertex=&quot;1&quot; parent=&quot;1&quot;&gt;&#10;          &lt;mxGeometry x=&quot;330&quot; y=&quot;410&quot; width=&quot;45.6&quot; height=&quot;61.800000000000004&quot; as=&quot;geometry&quot; /&gt;&#10;        &lt;/mxCell&gt;&#10;        &lt;mxCell id=&quot;IEez8AGFJPIhpADy_OUS-54&quot; value=&quot;&quot; style=&quot;edgeStyle=orthogonalEdgeStyle;rounded=0;orthogonalLoop=1;jettySize=auto;html=1;&quot; edge=&quot;1&quot; parent=&quot;1&quot; source=&quot;IEez8AGFJPIhpADy_OUS-13&quot; target=&quot;IEez8AGFJPIhpADy_OUS-39&quot;&gt;&#10;          &lt;mxGeometry relative=&quot;1&quot; as=&quot;geometry&quot; /&gt;&#10;        &lt;/mxCell&gt;&#10;        &lt;mxCell id=&quot;IEez8AGFJPIhpADy_OUS-13&quot; value=&quot;&quot; style=&quot;image;points=[];aspect=fixed;html=1;align=center;shadow=0;dashed=0;image=img/lib/allied_telesis/computer_and_terminals/Personal_Computer.svg;&quot; vertex=&quot;1&quot; parent=&quot;1&quot;&gt;&#10;          &lt;mxGeometry x=&quot;90&quot; y=&quot;330&quot; width=&quot;45.6&quot; height=&quot;61.800000000000004&quot; as=&quot;geometry&quot; /&gt;&#10;        &lt;/mxCell&gt;&#10;        &lt;mxCell id=&quot;IEez8AGFJPIhpADy_OUS-14&quot; value=&quot;&quot; style=&quot;image;points=[];aspect=fixed;html=1;align=center;shadow=0;dashed=0;image=img/lib/allied_telesis/computer_and_terminals/Personal_Computer.svg;&quot; vertex=&quot;1&quot; parent=&quot;1&quot;&gt;&#10;          &lt;mxGeometry x=&quot;170&quot; y=&quot;330&quot; width=&quot;45.6&quot; height=&quot;61.800000000000004&quot; as=&quot;geometry&quot; /&gt;&#10;        &lt;/mxCell&gt;&#10;        &lt;mxCell id=&quot;IEez8AGFJPIhpADy_OUS-48&quot; value=&quot;&quot; style=&quot;edgeStyle=orthogonalEdgeStyle;rounded=0;orthogonalLoop=1;jettySize=auto;html=1;&quot; edge=&quot;1&quot; parent=&quot;1&quot; source=&quot;IEez8AGFJPIhpADy_OUS-15&quot; target=&quot;IEez8AGFJPIhpADy_OUS-38&quot;&gt;&#10;          &lt;mxGeometry relative=&quot;1&quot; as=&quot;geometry&quot; /&gt;&#10;        &lt;/mxCell&gt;&#10;        &lt;mxCell id=&quot;IEez8AGFJPIhpADy_OUS-15&quot; value=&quot;&quot; style=&quot;image;points=[];aspect=fixed;html=1;align=center;shadow=0;dashed=0;image=img/lib/allied_telesis/computer_and_terminals/Personal_Computer.svg;&quot; vertex=&quot;1&quot; parent=&quot;1&quot;&gt;&#10;          &lt;mxGeometry x=&quot;250&quot; y=&quot;330&quot; width=&quot;45.6&quot; height=&quot;61.800000000000004&quot; as=&quot;geometry&quot; /&gt;&#10;        &lt;/mxCell&gt;&#10;        &lt;mxCell id=&quot;IEez8AGFJPIhpADy_OUS-40&quot; value=&quot;&quot; style=&quot;edgeStyle=orthogonalEdgeStyle;rounded=0;orthogonalLoop=1;jettySize=auto;html=1;&quot; edge=&quot;1&quot; parent=&quot;1&quot; source=&quot;IEez8AGFJPIhpADy_OUS-16&quot; target=&quot;IEez8AGFJPIhpADy_OUS-38&quot;&gt;&#10;          &lt;mxGeometry relative=&quot;1&quot; as=&quot;geometry&quot; /&gt;&#10;        &lt;/mxCell&gt;&#10;        &lt;mxCell id=&quot;IEez8AGFJPIhpADy_OUS-16&quot; value=&quot;&quot; style=&quot;image;points=[];aspect=fixed;html=1;align=center;shadow=0;dashed=0;image=img/lib/allied_telesis/computer_and_terminals/Personal_Computer.svg;&quot; vertex=&quot;1&quot; parent=&quot;1&quot;&gt;&#10;          &lt;mxGeometry x=&quot;330&quot; y=&quot;330&quot; width=&quot;45.6&quot; height=&quot;61.800000000000004&quot; as=&quot;geometry&quot; /&gt;&#10;        &lt;/mxCell&gt;&#10;        &lt;mxCell id=&quot;IEez8AGFJPIhpADy_OUS-17&quot; value=&quot;&quot; style=&quot;fontColor=#0066CC;verticalAlign=top;verticalLabelPosition=bottom;labelPosition=center;align=center;html=1;outlineConnect=0;fillColor=#CCCCCC;strokeColor=#6881B3;gradientColor=none;gradientDirection=north;strokeWidth=2;shape=mxgraph.networks.video_projector;&quot; vertex=&quot;1&quot; parent=&quot;1&quot;&gt;&#10;          &lt;mxGeometry x=&quot;530&quot; y=&quot;270&quot; width=&quot;100&quot; height=&quot;35&quot; as=&quot;geometry&quot; /&gt;&#10;        &lt;/mxCell&gt;&#10;        &lt;mxCell id=&quot;IEez8AGFJPIhpADy_OUS-35&quot; value=&quot;&quot; style=&quot;sketch=0;pointerEvents=1;shadow=0;dashed=0;html=1;strokeColor=none;fillColor=#434445;aspect=fixed;labelPosition=center;verticalLabelPosition=bottom;verticalAlign=top;align=center;outlineConnect=0;shape=mxgraph.vvd.ethernet_port;&quot; vertex=&quot;1&quot; parent=&quot;1&quot;&gt;&#10;          &lt;mxGeometry x=&quot;217.5&quot; y=&quot;147.5&quot; width=&quot;25&quot; height=&quot;25&quot; as=&quot;geometry&quot; /&gt;&#10;        &lt;/mxCell&gt;&#10;        &lt;mxCell id=&quot;IEez8AGFJPIhpADy_OUS-37&quot; value=&quot;&quot; style=&quot;sketch=0;pointerEvents=1;shadow=0;dashed=0;html=1;strokeColor=none;fillColor=#434445;aspect=fixed;labelPosition=center;verticalLabelPosition=bottom;verticalAlign=top;align=center;outlineConnect=0;shape=mxgraph.vvd.ethernet_port;&quot; vertex=&quot;1&quot; parent=&quot;1&quot;&gt;&#10;          &lt;mxGeometry x=&quot;410&quot; y=&quot;147.5&quot; width=&quot;25&quot; height=&quot;25&quot; as=&quot;geometry&quot; /&gt;&#10;        &lt;/mxCell&gt;&#10;        &lt;mxCell id=&quot;IEez8AGFJPIhpADy_OUS-61&quot; value=&quot;&quot; style=&quot;edgeStyle=orthogonalEdgeStyle;rounded=0;orthogonalLoop=1;jettySize=auto;html=1;&quot; edge=&quot;1&quot; parent=&quot;1&quot; source=&quot;IEez8AGFJPIhpADy_OUS-38&quot; target=&quot;IEez8AGFJPIhpADy_OUS-26&quot;&gt;&#10;          &lt;mxGeometry relative=&quot;1&quot; as=&quot;geometry&quot; /&gt;&#10;        &lt;/mxCell&gt;&#10;        &lt;mxCell id=&quot;IEez8AGFJPIhpADy_OUS-63&quot; value=&quot;&quot; style=&quot;edgeStyle=orthogonalEdgeStyle;rounded=0;orthogonalLoop=1;jettySize=auto;html=1;&quot; edge=&quot;1&quot; parent=&quot;1&quot; source=&quot;IEez8AGFJPIhpADy_OUS-38&quot; target=&quot;IEez8AGFJPIhpADy_OUS-26&quot;&gt;&#10;          &lt;mxGeometry relative=&quot;1&quot; as=&quot;geometry&quot; /&gt;&#10;        &lt;/mxCell&gt;&#10;        &lt;mxCell id=&quot;IEez8AGFJPIhpADy_OUS-38&quot; value=&quot;&quot; style=&quot;sketch=0;pointerEvents=1;shadow=0;dashed=0;html=1;strokeColor=none;fillColor=#434445;aspect=fixed;labelPosition=center;verticalLabelPosition=bottom;verticalAlign=top;align=center;outlineConnect=0;shape=mxgraph.vvd.ethernet_port;&quot; vertex=&quot;1&quot; parent=&quot;1&quot;&gt;&#10;          &lt;mxGeometry x=&quot;410&quot; y=&quot;387.5&quot; width=&quot;25&quot; height=&quot;25&quot; as=&quot;geometry&quot; /&gt;&#10;        &lt;/mxCell&gt;&#10;        &lt;mxCell id=&quot;IEez8AGFJPIhpADy_OUS-39&quot; value=&quot;&quot; style=&quot;sketch=0;pointerEvents=1;shadow=0;dashed=0;html=1;strokeColor=none;fillColor=#434445;aspect=fixed;labelPosition=center;verticalLabelPosition=bottom;verticalAlign=top;align=center;outlineConnect=0;shape=mxgraph.vvd.ethernet_port;&quot; vertex=&quot;1&quot; parent=&quot;1&quot;&gt;&#10;          &lt;mxGeometry x=&quot;217.5&quot; y=&quot;387.5&quot; width=&quot;25&quot; height=&quot;25&quot; as=&quot;geometry&quot; /&gt;&#10;        &lt;/mxCell&gt;&#10;        &lt;mxCell id=&quot;IEez8AGFJPIhpADy_OUS-56&quot; value=&quot;&quot; style=&quot;image;points=[];aspect=fixed;html=1;align=center;shadow=0;dashed=0;image=img/lib/allied_telesis/computer_and_terminals/Personal_Computer.svg;&quot; vertex=&quot;1&quot; parent=&quot;1&quot;&gt;&#10;          &lt;mxGeometry x=&quot;616.5999999999999&quot; y=&quot;54.1&quot; width=&quot;45.6&quot; height=&quot;61.800000000000004&quot; as=&quot;geometry&quot; /&gt;&#10;        &lt;/mxCell&gt;&#10;        &lt;mxCell id=&quot;IEez8AGFJPIhpADy_OUS-57&quot; value=&quot;&quot; style=&quot;fontColor=#0066CC;verticalAlign=top;verticalLabelPosition=bottom;labelPosition=center;align=center;html=1;outlineConnect=0;fillColor=#CCCCCC;strokeColor=#6881B3;gradientColor=none;gradientDirection=north;strokeWidth=2;shape=mxgraph.networks.printer;&quot; vertex=&quot;1&quot; parent=&quot;1&quot;&gt;&#10;          &lt;mxGeometry x=&quot;460&quot; y=&quot;360&quot; width=&quot;60&quot; height=&quot;60&quot; as=&quot;geometry&quot; /&gt;&#10;        &lt;/mxCell&gt;&#10;        &lt;mxCell id=&quot;IEez8AGFJPIhpADy_OUS-59&quot; value=&quot;&quot; style=&quot;shape=image;html=1;verticalAlign=top;verticalLabelPosition=bottom;labelBackgroundColor=#ffffff;imageAspect=0;aspect=fixed;image=https://cdn0.iconfinder.com/data/icons/google-material-design-3-0/48/ic_settings_input_hdmi_48px-128.png&quot; vertex=&quot;1&quot; parent=&quot;1&quot;&gt;&#10;          &lt;mxGeometry x=&quot;533&quot; y=&quot;245&quot; width=&quot;25&quot; height=&quot;25&quot; as=&quot;geometry&quot; /&gt;&#10;        &lt;/mxCell&gt;&#10;        &lt;mxCell id=&quot;IEez8AGFJPIhpADy_OUS-64&quot; value=&quot;&quot; style=&quot;endArrow=classic;html=1;rounded=0;&quot; edge=&quot;1&quot; parent=&quot;1&quot;&gt;&#10;          &lt;mxGeometry width=&quot;50&quot; height=&quot;50&quot; relative=&quot;1&quot; as=&quot;geometry&quot;&gt;&#10;            &lt;mxPoint x=&quot;420&quot; y=&quot;420&quot; as=&quot;sourcePoint&quot; /&gt;&#10;            &lt;mxPoint x=&quot;490&quot; y=&quot;430&quot; as=&quot;targetPoint&quot; /&gt;&#10;            &lt;Array as=&quot;points&quot;&gt;&#10;              &lt;mxPoint x=&quot;420&quot; y=&quot;470&quot; /&gt;&#10;              &lt;mxPoint x=&quot;490&quot; y=&quot;470&quot; /&gt;&#10;            &lt;/Array&gt;&#10;          &lt;/mxGeometry&gt;&#10;        &lt;/mxCell&gt;&#10;        &lt;mxCell id=&quot;IEez8AGFJPIhpADy_OUS-65&quot; value=&quot;&quot; style=&quot;shape=image;html=1;verticalAlign=top;verticalLabelPosition=bottom;labelBackgroundColor=#ffffff;imageAspect=0;aspect=fixed;image=https://cdn0.iconfinder.com/data/icons/google-material-design-3-0/48/ic_settings_input_hdmi_48px-128.png;flipV=1;&quot; vertex=&quot;1&quot; parent=&quot;1&quot;&gt;&#10;          &lt;mxGeometry x=&quot;591.6&quot; y=&quot;108.4&quot; width=&quot;25&quot; height=&quot;25&quot; as=&quot;geometry&quot; /&gt;&#10;        &lt;/mxCell&gt;&#10;        &lt;mxCell id=&quot;IEez8AGFJPIhpADy_OUS-66&quot; value=&quot;&quot; style=&quot;endArrow=none;html=1;rounded=0;&quot; edge=&quot;1&quot; parent=&quot;1&quot;&gt;&#10;          &lt;mxGeometry width=&quot;50&quot; height=&quot;50&quot; relative=&quot;1&quot; as=&quot;geometry&quot;&gt;&#10;            &lt;mxPoint x=&quot;544.4&quot; y=&quot;240&quot; as=&quot;sourcePoint&quot; /&gt;&#10;            &lt;mxPoint x=&quot;604.4&quot; y=&quot;140&quot; as=&quot;targetPoint&quot; /&gt;&#10;            &lt;Array as=&quot;points&quot;&gt;&#10;              &lt;mxPoint x=&quot;544.4&quot; y=&quot;210&quot; /&gt;&#10;              &lt;mxPoint x=&quot;604.4&quot; y=&quot;210&quot; /&gt;&#10;            &lt;/Array&gt;&#10;          &lt;/mxGeometry&gt;&#10;        &lt;/mxCell&gt;&#10;        &lt;mxCell id=&quot;IEez8AGFJPIhpADy_OUS-67&quot; value=&quot;&quot; style=&quot;shape=image;html=1;verticalAlign=top;verticalLabelPosition=bottom;labelBackgroundColor=#ffffff;imageAspect=0;aspect=fixed;image=https://cdn4.iconfinder.com/data/icons/success-filloutline/64/board-stats-report-presentation-diagram-128.png&quot; vertex=&quot;1&quot; parent=&quot;1&quot;&gt;&#10;          &lt;mxGeometry x=&quot;670&quot; y=&quot;223.5&quot; width=&quot;128&quot; height=&quot;128&quot; as=&quot;geometry&quot; /&gt;&#10;        &lt;/mxCell&gt;&#10;      &lt;/root&gt;&#10;    &lt;/mxGraphModel&gt;&#10;  &lt;/diagram&gt;&#10;&lt;/mxfile&gt;&#10;" resource="https://app.diagrams.net/?src=about#HShadient%2FDiagrams%2Fmain%2Freseau.drawio.svg"><defs/><g><rect x="514.4" y="0" width="130" height="70" fill="rgb(255, 255, 255)" stroke="rgb(0, 0, 0)" pointer-events="all"/><rect x="514.4" y="0" width="14.44" height="9.8" fill="none" stroke="rgb(0, 0, 0)" pointer-events="all"/><rect x="514.4" y="60.2" width="14.44" height="9.8" fill="none" stroke="rgb(0, 0, 0)" pointer-events="all"/><rect x="629.96" y="0" width="14.44" height="9.8" fill="none" stroke="rgb(0, 0, 0)" pointer-events="all"/><rect x="629.96" y="60.2" width="14.44" height="9.8" fill="none" stroke="rgb(0, 0, 0)" pointer-events="all"/><rect x="0" y="30" width="340" height="160" fill="rgb(255, 255, 255)" stroke="rgb(0, 0, 0)" pointer-events="all"/><rect x="0" y="30" width="37.78" height="22.4" fill="none" stroke="rgb(0, 0, 0)" pointer-events="all"/><rect x="0" y="167.6" width="37.78" height="22.4" fill="none" stroke="rgb(0, 0, 0)" pointer-events="all"/><rect x="302.22" y="30" width="37.78" height="22.4" fill="none" stroke="rgb(0, 0, 0)" pointer-events="all"/><rect x="302.22" y="167.6" width="37.78" height="22.4" fill="none" stroke="rgb(0, 0, 0)" pointer-events="all"/><rect x="0" y="270" width="340" height="160" fill="rgb(255, 255, 255)" stroke="rgb(0, 0, 0)" pointer-events="all"/><rect x="0" y="270" width="37.78" height="22.4" fill="none" stroke="rgb(0, 0, 0)" pointer-events="all"/><rect x="0" y="407.6" width="37.78" height="22.4" fill="none" stroke="rgb(0, 0, 0)" pointer-events="all"/><rect x="302.22" y="270" width="37.78" height="22.4" fill="none" stroke="rgb(0, 0, 0)" pointer-events="all"/><rect x="302.22" y="407.6" width="37.78" height="22.4" fill="none" stroke="rgb(0, 0, 0)" pointer-events="all"/><path d="M 75.6 150.9 L 116.6 150.9 L 116.6 110 L 151.13 110" fill="none" stroke="rgb(0, 0, 0)" stroke-miterlimit="10" pointer-events="stroke"/><path d="M 156.38 110 L 149.38 113.5 L 151.13 110 L 149.38 106.5 Z" fill="rgb(0, 0, 0)" stroke="rgb(0, 0, 0)" stroke-miterlimit="10" pointer-events="all"/><image x="29.5" y="119.5" width="45.6" height="61.8" xlink:href="https://app.diagrams.net/img/lib/allied_telesis/computer_and_terminals/Personal_Computer.svg"/><image x="109.5" y="119.5" width="45.6" height="61.8" xlink:href="https://app.diagrams.net/img/lib/allied_telesis/computer_and_terminals/Personal_Computer.svg"/><path d="M 235.6 150.9 L 292.8 150.9 L 292.8 110 L 343.63 110" fill="none" stroke="rgb(0, 0, 0)" stroke-miterlimit="10" pointer-events="stroke"/><path d="M 348.88 110 L 341.88 113.5 L 343.63 110 L 341.88 106.5 Z" fill="rgb(0, 0, 0)" stroke="rgb(0, 0, 0)" stroke-miterlimit="10" pointer-events="all"/><image x="189.5" y="119.5" width="45.6" height="61.8" xlink:href="https://app.diagrams.net/img/lib/allied_telesis/computer_and_terminals/Personal_Computer.svg"/><path d="M 315.6 150.9 L 335.6 150.9 L 335.6 110 L 343.63 110" fill="none" stroke="rgb(0, 0, 0)" stroke-miterlimit="10" pointer-events="stroke"/><path d="M 348.88 110 L 341.88 113.5 L 343.63 110 L 341.88 106.5 Z" fill="rgb(0, 0, 0)" stroke="rgb(0, 0, 0)" stroke-miterlimit="10" pointer-events="all"/><image x="269.5" y="119.5" width="45.6" height="61.8" xlink:href="https://app.diagrams.net/img/lib/allied_telesis/computer_and_terminals/Personal_Computer.svg"/><path d="M 75.6 70.9 L 116.6 70.9 L 116.6 110 L 151.13 110" fill="none" stroke="rgb(0, 0, 0)" stroke-miterlimit="10" pointer-events="stroke"/><path d="M 156.38 110 L 149.38 113.5 L 151.13 110 L 149.38 106.5 Z" fill="rgb(0, 0, 0)" stroke="rgb(0, 0, 0)" stroke-miterlimit="10" pointer-events="all"/><image x="29.5" y="39.5" width="45.6" height="61.8" xlink:href="https://app.diagrams.net/img/lib/allied_telesis/computer_and_terminals/Personal_Computer.svg"/><image x="109.5" y="39.5" width="45.6" height="61.8" xlink:href="https://app.diagrams.net/img/lib/allied_telesis/computer_and_terminals/Personal_Computer.svg"/><path d="M 235.6 70.9 L 292.8 70.9 L 292.8 110 L 343.63 110" fill="none" stroke="rgb(0, 0, 0)" stroke-miterlimit="10" pointer-events="stroke"/><path d="M 348.88 110 L 341.88 113.5 L 343.63 110 L 341.88 106.5 Z" fill="rgb(0, 0, 0)" stroke="rgb(0, 0, 0)" stroke-miterlimit="10" pointer-events="all"/><image x="189.5" y="39.5" width="45.6" height="61.8" xlink:href="https://app.diagrams.net/img/lib/allied_telesis/computer_and_terminals/Personal_Computer.svg"/><path d="M 315.6 70.9 L 335.6 70.9 L 335.6 110 L 343.63 110" fill="none" stroke="rgb(0, 0, 0)" stroke-miterlimit="10" pointer-events="stroke"/><path d="M 348.88 110 L 341.88 113.5 L 343.63 110 L 341.88 106.5 Z" fill="rgb(0, 0, 0)" stroke="rgb(0, 0, 0)" stroke-miterlimit="10" pointer-events="all"/><image x="269.5" y="39.5" width="45.6" height="61.8" xlink:href="https://app.diagrams.net/img/lib/allied_telesis/computer_and_terminals/Personal_Computer.svg"/><path d="M 75.6 390.9 L 116.6 390.9 L 116.6 350 L 151.13 350" fill="none" stroke="rgb(0, 0, 0)" stroke-miterlimit="10" pointer-events="stroke"/><path d="M 156.38 350 L 149.38 353.5 L 151.13 350 L 149.38 346.5 Z" fill="rgb(0, 0, 0)" stroke="rgb(0, 0, 0)" stroke-miterlimit="10" pointer-events="all"/><image x="29.5" y="359.5" width="45.6" height="61.8" xlink:href="https://app.diagrams.net/img/lib/allied_telesis/computer_and_terminals/Personal_Computer.svg"/><image x="109.5" y="359.5" width="45.6" height="61.8" xlink:href="https://app.diagrams.net/img/lib/allied_telesis/computer_and_terminals/Personal_Computer.svg"/><path d="M 235.6 390.9 L 292.8 390.9 L 292.8 350 L 343.63 350" fill="none" stroke="rgb(0, 0, 0)" stroke-miterlimit="10" pointer-events="stroke"/><path d="M 348.88 350 L 341.88 353.5 L 343.63 350 L 341.88 346.5 Z" fill="rgb(0, 0, 0)" stroke="rgb(0, 0, 0)" stroke-miterlimit="10" pointer-events="all"/><image x="189.5" y="359.5" width="45.6" height="61.8" xlink:href="https://app.diagrams.net/img/lib/allied_telesis/computer_and_terminals/Personal_Computer.svg"/><path d="M 315.6 390.9 L 335.6 390.9 L 335.6 350 L 343.63 350" fill="none" stroke="rgb(0, 0, 0)" stroke-miterlimit="10" pointer-events="stroke"/><path d="M 348.88 350 L 341.88 353.5 L 343.63 350 L 341.88 346.5 Z" fill="rgb(0, 0, 0)" stroke="rgb(0, 0, 0)" stroke-miterlimit="10" pointer-events="all"/><image x="269.5" y="359.5" width="45.6" height="61.8" xlink:href="https://app.diagrams.net/img/lib/allied_telesis/computer_and_terminals/Personal_Computer.svg"/><path d="M 75.6 310.9 L 116.6 310.9 L 116.6 350 L 151.13 350" fill="none" stroke="rgb(0, 0, 0)" stroke-miterlimit="10" pointer-events="stroke"/><path d="M 156.38 350 L 149.38 353.5 L 151.13 350 L 149.38 346.5 Z" fill="rgb(0, 0, 0)" stroke="rgb(0, 0, 0)" stroke-miterlimit="10" pointer-events="all"/><image x="29.5" y="279.5" width="45.6" height="61.8" xlink:href="https://app.diagrams.net/img/lib/allied_telesis/computer_and_terminals/Personal_Computer.svg"/><image x="109.5" y="279.5" width="45.6" height="61.8" xlink:href="https://app.diagrams.net/img/lib/allied_telesis/computer_and_terminals/Personal_Computer.svg"/><path d="M 235.6 310.9 L 292.8 310.9 L 292.8 350 L 343.63 350" fill="none" stroke="rgb(0, 0, 0)" stroke-miterlimit="10" pointer-events="stroke"/><path d="M 348.88 350 L 341.88 353.5 L 343.63 350 L 341.88 346.5 Z" fill="rgb(0, 0, 0)" stroke="rgb(0, 0, 0)" stroke-miterlimit="10" pointer-events="all"/><image x="189.5" y="279.5" width="45.6" height="61.8" xlink:href="https://app.diagrams.net/img/lib/allied_telesis/computer_and_terminals/Personal_Computer.svg"/><path d="M 315.6 310.9 L 335.6 310.9 L 335.6 350 L 343.63 350" fill="none" stroke="rgb(0, 0, 0)" stroke-miterlimit="10" pointer-events="stroke"/><path d="M 348.88 350 L 341.88 353.5 L 343.63 350 L 341.88 346.5 Z" fill="rgb(0, 0, 0)" stroke="rgb(0, 0, 0)" stroke-miterlimit="10" pointer-events="all"/><image x="269.5" y="279.5" width="45.6" height="61.8" xlink:href="https://app.diagrams.net/img/lib/allied_telesis/computer_and_terminals/Personal_Computer.svg"/><rect x="470" y="225.15" width="100" height="25.74" rx="4.12" ry="4.12" fill="#cccccc" stroke="#6881b3" stroke-width="2" pointer-events="all"/><ellipse cx="540" cy="236.47" rx="16" ry="16.470588235294116" fill="#cccccc" stroke="#6881b3" stroke-width="2" pointer-events="all"/><rect x="477" y="250.88" width="8" height="4.12" fill="#cccccc" stroke="#6881b3" stroke-width="2" pointer-events="all"/><rect x="555" y="250.88" width="8" height="4.12" fill="#cccccc" stroke="#6881b3" stroke-width="2" pointer-events="all"/><ellipse cx="562" cy="238.53" rx="2" ry="2.0588235294117645" fill="#ffffff" stroke="none" pointer-events="all"/><rect x="478" y="228.75" width="40" height="3.09" fill="#ffffff" stroke="none" pointer-events="all"/><ellipse cx="562" cy="231.32" rx="2" ry="2.0588235294117645" fill="#ffffff" stroke="none" pointer-events="all"/><rect x="478" y="233.9" width="40" height="3.09" fill="#ffffff" stroke="none" pointer-events="all"/><rect x="478" y="239.04" width="40" height="3.09" fill="#ffffff" stroke="none" pointer-events="all"/><rect x="478" y="244.19" width="40" height="3.09" fill="#ffffff" stroke="none" pointer-events="all"/><ellipse cx="540" cy="236.47" rx="13" ry="13.38235294117647" fill="#ffffff" stroke="none" pointer-events="all"/><rect x="157.5" y="97.5" width="25" height="25" fill="none" stroke="none" pointer-events="all"/><path d="M 176.48 104.67 C 176.33 104.67 176.18 104.73 176.08 104.84 C 175.97 104.95 175.91 105.1 175.91 105.25 L 175.91 107.54 C 175.91 107.86 176.17 108.11 176.49 108.11 C 176.81 108.11 177.07 107.86 177.07 107.54 L 177.07 105.25 C 177.07 105.1 177.01 104.95 176.9 104.83 C 176.79 104.72 176.64 104.66 176.48 104.67 Z M 173.43 104.67 C 173.28 104.67 173.13 104.73 173.02 104.84 C 172.92 104.95 172.86 105.1 172.86 105.25 L 172.86 107.54 C 172.86 107.86 173.12 108.11 173.44 108.11 C 173.76 108.11 174.01 107.86 174.01 107.54 L 174.01 105.25 C 174.02 105.1 173.96 104.95 173.85 104.84 C 173.73 104.73 173.58 104.66 173.43 104.67 Z M 170.38 104.67 C 170.22 104.67 170.08 104.73 169.97 104.84 C 169.86 104.95 169.81 105.1 169.81 105.25 L 169.81 107.54 C 169.81 107.86 170.07 108.11 170.39 108.11 C 170.7 108.11 170.96 107.86 170.96 107.54 L 170.96 105.25 C 170.96 105.1 170.9 104.95 170.79 104.83 C 170.68 104.72 170.53 104.66 170.38 104.67 Z M 167.32 104.67 C 167.17 104.67 167.02 104.73 166.92 104.84 C 166.81 104.95 166.75 105.1 166.76 105.25 L 166.76 107.54 C 166.76 107.86 167.01 108.11 167.33 108.11 C 167.65 108.11 167.91 107.86 167.91 107.54 L 167.91 105.25 C 167.91 105.1 167.85 104.95 167.74 104.83 C 167.63 104.72 167.48 104.66 167.32 104.67 Z M 164.27 104.67 C 164.12 104.67 163.97 104.73 163.87 104.84 C 163.76 104.95 163.7 105.1 163.7 105.25 L 163.7 107.54 C 163.7 107.86 163.96 108.11 164.28 108.11 C 164.6 108.11 164.86 107.86 164.86 107.54 L 164.86 105.25 C 164.86 105.1 164.8 104.95 164.69 104.84 C 164.58 104.73 164.43 104.66 164.27 104.67 Z M 160.87 102.5 L 160.87 113.76 L 161.49 113.76 L 164.01 113.76 L 164.01 115.85 L 166.05 115.85 L 166.05 118.25 L 174.13 118.25 L 174.13 115.85 L 176.34 115.85 L 176.34 113.76 L 179.37 113.76 L 179.37 102.5 Z M 162.1 103.73 L 178.14 103.73 L 178.14 112.53 L 175.11 112.53 L 175.11 114.62 L 172.9 114.62 L 172.9 117.02 L 167.28 117.02 L 167.28 114.62 L 165.24 114.62 L 165.24 112.53 L 162.1 112.53 Z M 159.51 97.5 C 158.41 97.5 157.5 98.41 157.5 99.51 L 157.5 120.49 C 157.5 121.6 158.41 122.5 159.51 122.5 L 180.49 122.5 C 181.59 122.5 182.5 121.6 182.5 120.49 L 182.5 99.51 C 182.5 98.41 181.59 97.5 180.49 97.5 Z M 159.51 98.73 L 180.49 98.73 C 180.93 98.73 181.27 99.06 181.27 99.51 L 181.27 120.49 C 181.27 120.94 180.93 121.27 180.49 121.27 L 159.51 121.27 C 159.07 121.27 158.73 120.94 158.73 120.49 L 158.73 99.51 C 158.73 99.06 159.07 98.73 159.51 98.73 Z" fill="#434445" stroke="none" pointer-events="all"/><rect x="350" y="97.5" width="25" height="25" fill="none" stroke="none" pointer-events="all"/><path d="M 368.98 104.67 C 368.83 104.67 368.68 104.73 368.58 104.84 C 368.47 104.95 368.41 105.1 368.41 105.25 L 368.41 107.54 C 368.41 107.86 368.67 108.11 368.99 108.11 C 369.31 108.11 369.57 107.86 369.57 107.54 L 369.57 105.25 C 369.57 105.1 369.51 104.95 369.4 104.83 C 369.29 104.72 369.14 104.66 368.98 104.67 Z M 365.93 104.67 C 365.78 104.67 365.63 104.73 365.52 104.84 C 365.42 104.95 365.36 105.1 365.36 105.25 L 365.36 107.54 C 365.36 107.86 365.62 108.11 365.94 108.11 C 366.26 108.11 366.51 107.86 366.51 107.54 L 366.51 105.25 C 366.52 105.1 366.46 104.95 366.35 104.84 C 366.23 104.73 366.08 104.66 365.93 104.67 Z M 362.88 104.67 C 362.72 104.67 362.58 104.73 362.47 104.84 C 362.36 104.95 362.31 105.1 362.31 105.25 L 362.31 107.54 C 362.31 107.86 362.57 108.11 362.89 108.11 C 363.2 108.11 363.46 107.86 363.46 107.54 L 363.46 105.25 C 363.46 105.1 363.4 104.95 363.29 104.83 C 363.18 104.72 363.03 104.66 362.88 104.67 Z M 359.82 104.67 C 359.67 104.67 359.52 104.73 359.42 104.84 C 359.31 104.95 359.25 105.1 359.26 105.25 L 359.26 107.54 C 359.26 107.86 359.51 108.11 359.83 108.11 C 360.15 108.11 360.41 107.86 360.41 107.54 L 360.41 105.25 C 360.41 105.1 360.35 104.95 360.24 104.83 C 360.13 104.72 359.98 104.66 359.82 104.67 Z M 356.77 104.67 C 356.62 104.67 356.47 104.73 356.37 104.84 C 356.26 104.95 356.2 105.1 356.2 105.25 L 356.2 107.54 C 356.2 107.86 356.46 108.11 356.78 108.11 C 357.1 108.11 357.36 107.86 357.36 107.54 L 357.36 105.25 C 357.36 105.1 357.3 104.95 357.19 104.84 C 357.08 104.73 356.93 104.66 356.77 104.67 Z M 353.37 102.5 L 353.37 113.76 L 353.99 113.76 L 356.51 113.76 L 356.51 115.85 L 358.55 115.85 L 358.55 118.25 L 366.63 118.25 L 366.63 115.85 L 368.84 115.85 L 368.84 113.76 L 371.87 113.76 L 371.87 102.5 Z M 354.6 103.73 L 370.64 103.73 L 370.64 112.53 L 367.61 112.53 L 367.61 114.62 L 365.4 114.62 L 365.4 117.02 L 359.78 117.02 L 359.78 114.62 L 357.74 114.62 L 357.74 112.53 L 354.6 112.53 Z M 352.01 97.5 C 350.91 97.5 350 98.41 350 99.51 L 350 120.49 C 350 121.6 350.91 122.5 352.01 122.5 L 372.99 122.5 C 374.09 122.5 375 121.6 375 120.49 L 375 99.51 C 375 98.41 374.09 97.5 372.99 97.5 Z M 352.01 98.73 L 372.99 98.73 C 373.43 98.73 373.77 99.06 373.77 99.51 L 373.77 120.49 C 373.77 120.94 373.43 121.27 372.99 121.27 L 352.01 121.27 C 351.57 121.27 351.23 120.94 351.23 120.49 L 351.23 99.51 C 351.23 99.06 351.57 98.73 352.01 98.73 Z" fill="#434445" stroke="none" pointer-events="all"/><path d="M 350 350 L 330 350 L 360 350 L 346.37 350" fill="none" stroke="rgb(0, 0, 0)" stroke-miterlimit="10" pointer-events="stroke"/><path d="M 341.12 350 L 348.12 346.5 L 346.37 350 L 348.12 353.5 Z" fill="rgb(0, 0, 0)" stroke="rgb(0, 0, 0)" stroke-miterlimit="10" pointer-events="all"/><path d="M 350 350 L 330 350 L 360 350 L 346.37 350" fill="none" stroke="rgb(0, 0, 0)" stroke-miterlimit="10" pointer-events="stroke"/><path d="M 341.12 350 L 348.12 346.5 L 346.37 350 L 348.12 353.5 Z" fill="rgb(0, 0, 0)" stroke="rgb(0, 0, 0)" stroke-miterlimit="10" pointer-events="all"/><rect x="350" y="337.5" width="25" height="25" fill="none" stroke="none" pointer-events="all"/><path d="M 368.98 344.67 C 368.83 344.67 368.68 344.73 368.58 344.84 C 368.47 344.95 368.41 345.1 368.41 345.25 L 368.41 347.54 C 368.41 347.86 368.67 348.11 368.99 348.11 C 369.31 348.11 369.57 347.86 369.57 347.54 L 369.57 345.25 C 369.57 345.1 369.51 344.95 369.4 344.83 C 369.29 344.72 369.14 344.66 368.98 344.67 Z M 365.93 344.67 C 365.78 344.67 365.63 344.73 365.52 344.84 C 365.42 344.95 365.36 345.1 365.36 345.25 L 365.36 347.54 C 365.36 347.86 365.62 348.11 365.94 348.11 C 366.26 348.11 366.51 347.86 366.51 347.54 L 366.51 345.25 C 366.52 345.1 366.46 344.95 366.35 344.84 C 366.23 344.73 366.08 344.66 365.93 344.67 Z M 362.88 344.67 C 362.72 344.67 362.58 344.73 362.47 344.84 C 362.36 344.95 362.31 345.1 362.31 345.25 L 362.31 347.54 C 362.31 347.86 362.57 348.11 362.89 348.11 C 363.2 348.11 363.46 347.86 363.46 347.54 L 363.46 345.25 C 363.46 345.1 363.4 344.95 363.29 344.83 C 363.18 344.72 363.03 344.66 362.88 344.67 Z M 359.82 344.67 C 359.67 344.67 359.52 344.73 359.42 344.84 C 359.31 344.95 359.25 345.1 359.26 345.25 L 359.26 347.54 C 359.26 347.86 359.51 348.11 359.83 348.11 C 360.15 348.11 360.41 347.86 360.41 347.54 L 360.41 345.25 C 360.41 345.1 360.35 344.95 360.24 344.83 C 360.13 344.72 359.98 344.66 359.82 344.67 Z M 356.77 344.67 C 356.62 344.67 356.47 344.73 356.37 344.84 C 356.26 344.95 356.2 345.1 356.2 345.25 L 356.2 347.54 C 356.2 347.86 356.46 348.11 356.78 348.11 C 357.1 348.11 357.36 347.86 357.36 347.54 L 357.36 345.25 C 357.36 345.1 357.3 344.95 357.19 344.84 C 357.08 344.73 356.93 344.66 356.77 344.67 Z M 353.37 342.5 L 353.37 353.76 L 353.99 353.76 L 356.51 353.76 L 356.51 355.85 L 358.55 355.85 L 358.55 358.25 L 366.63 358.25 L 366.63 355.85 L 368.84 355.85 L 368.84 353.76 L 371.87 353.76 L 371.87 342.5 Z M 354.6 343.73 L 370.64 343.73 L 370.64 352.53 L 367.61 352.53 L 367.61 354.62 L 365.4 354.62 L 365.4 357.02 L 359.78 357.02 L 359.78 354.62 L 357.74 354.62 L 357.74 352.53 L 354.6 352.53 Z M 352.01 337.5 C 350.91 337.5 350 338.41 350 339.51 L 350 360.49 C 350 361.6 350.91 362.5 352.01 362.5 L 372.99 362.5 C 374.09 362.5 375 361.6 375 360.49 L 375 339.51 C 375 338.41 374.09 337.5 372.99 337.5 Z M 352.01 338.73 L 372.99 338.73 C 373.43 338.73 373.77 339.06 373.77 339.51 L 373.77 360.49 C 373.77 360.94 373.43 361.27 372.99 361.27 L 352.01 361.27 C 351.57 361.27 351.23 360.94 351.23 360.49 L 351.23 339.51 C 351.23 339.06 351.57 338.73 352.01 338.73 Z" fill="#434445" stroke="none" pointer-events="all"/><rect x="157.5" y="337.5" width="25" height="25" fill="none" stroke="none" pointer-events="all"/><path d="M 176.48 344.67 C 176.33 344.67 176.18 344.73 176.08 344.84 C 175.97 344.95 175.91 345.1 175.91 345.25 L 175.91 347.54 C 175.91 347.86 176.17 348.11 176.49 348.11 C 176.81 348.11 177.07 347.86 177.07 347.54 L 177.07 345.25 C 177.07 345.1 177.01 344.95 176.9 344.83 C 176.79 344.72 176.64 344.66 176.48 344.67 Z M 173.43 344.67 C 173.28 344.67 173.13 344.73 173.02 344.84 C 172.92 344.95 172.86 345.1 172.86 345.25 L 172.86 347.54 C 172.86 347.86 173.12 348.11 173.44 348.11 C 173.76 348.11 174.01 347.86 174.01 347.54 L 174.01 345.25 C 174.02 345.1 173.96 344.95 173.85 344.84 C 173.73 344.73 173.58 344.66 173.43 344.67 Z M 170.38 344.67 C 170.22 344.67 170.08 344.73 169.97 344.84 C 169.86 344.95 169.81 345.1 169.81 345.25 L 169.81 347.54 C 169.81 347.86 170.07 348.11 170.39 348.11 C 170.7 348.11 170.96 347.86 170.96 347.54 L 170.96 345.25 C 170.96 345.1 170.9 344.95 170.79 344.83 C 170.68 344.72 170.53 344.66 170.38 344.67 Z M 167.32 344.67 C 167.17 344.67 167.02 344.73 166.92 344.84 C 166.81 344.95 166.75 345.1 166.76 345.25 L 166.76 347.54 C 166.76 347.86 167.01 348.11 167.33 348.11 C 167.65 348.11 167.91 347.86 167.91 347.54 L 167.91 345.25 C 167.91 345.1 167.85 344.95 167.74 344.83 C 167.63 344.72 167.48 344.66 167.32 344.67 Z M 164.27 344.67 C 164.12 344.67 163.97 344.73 163.87 344.84 C 163.76 344.95 163.7 345.1 163.7 345.25 L 163.7 347.54 C 163.7 347.86 163.96 348.11 164.28 348.11 C 164.6 348.11 164.86 347.86 164.86 347.54 L 164.86 345.25 C 164.86 345.1 164.8 344.95 164.69 344.84 C 164.58 344.73 164.43 344.66 164.27 344.67 Z M 160.87 342.5 L 160.87 353.76 L 161.49 353.76 L 164.01 353.76 L 164.01 355.85 L 166.05 355.85 L 166.05 358.25 L 174.13 358.25 L 174.13 355.85 L 176.34 355.85 L 176.34 353.76 L 179.37 353.76 L 179.37 342.5 Z M 162.1 343.73 L 178.14 343.73 L 178.14 352.53 L 175.11 352.53 L 175.11 354.62 L 172.9 354.62 L 172.9 357.02 L 167.28 357.02 L 167.28 354.62 L 165.24 354.62 L 165.24 352.53 L 162.1 352.53 Z M 159.51 337.5 C 158.41 337.5 157.5 338.41 157.5 339.51 L 157.5 360.49 C 157.5 361.6 158.41 362.5 159.51 362.5 L 180.49 362.5 C 181.59 362.5 182.5 361.6 182.5 360.49 L 182.5 339.51 C 182.5 338.41 181.59 337.5 180.49 337.5 Z M 159.51 338.73 L 180.49 338.73 C 180.93 338.73 181.27 339.06 181.27 339.51 L 181.27 360.49 C 181.27 360.94 180.93 361.27 180.49 361.27 L 159.51 361.27 C 159.07 361.27 158.73 360.94 158.73 360.49 L 158.73 339.51 C 158.73 339.06 159.07 338.73 159.51 338.73 Z" fill="#434445" stroke="none" pointer-events="all"/><image x="556.1" y="3.5999999999999996" width="45.6" height="61.8" xlink:href="https://app.diagrams.net/img/lib/allied_telesis/computer_and_terminals/Personal_Computer.svg"/><rect x="400" y="334" width="60" height="24" fill="#cccccc" stroke="#6881b3" stroke-width="1.2" pointer-events="all"/><rect x="404.8" y="358" width="50.4" height="3.6" fill="#cccccc" stroke="#6881b3" stroke-width="1.2" pointer-events="all"/><rect x="412" y="310" width="36" height="24" fill="#cccccc" stroke="#6881b3" stroke-width="1.2" pointer-events="all"/><path d="M 448 352 L 454 370 L 406 370 L 412 352 Z M 415 356.8 L 445 356.8 M 413.2 361.6 L 446.8 361.6 M 410.8 366.4 L 449.2 366.4" fill="#cccccc" stroke="#6881b3" stroke-width="1.2" stroke-miterlimit="10" pointer-events="all"/><rect x="406" y="337" width="15" height="1.8" fill="#ffffff" stroke="none" pointer-events="all"/><ellipse cx="451" cy="340" rx="3" ry="3" fill="#ffffff" stroke="none" pointer-events="all"/><image x="472.5" y="194.5" width="25" height="25" xlink:href="https://cdn0.iconfinder.com/data/icons/google-material-design-3-0/48/ic_settings_input_hdmi_48px-128.png" preserveAspectRatio="none"/><path d="M 360 370 L 360 420 L 430 420 L 430 386.37" fill="none" stroke="rgb(0, 0, 0)" stroke-miterlimit="10" pointer-events="stroke"/><path d="M 430 381.12 L 433.5 388.12 L 430 386.37 L 426.5 388.12 Z" fill="rgb(0, 0, 0)" stroke="rgb(0, 0, 0)" stroke-miterlimit="10" pointer-events="all"/><image x="531.1" y="57.9" width="25" height="25" xlink:href="https://cdn0.iconfinder.com/data/icons/google-material-design-3-0/48/ic_settings_input_hdmi_48px-128.png" preserveAspectRatio="none" transform="translate(0,70.9)scale(1,-1)translate(0,-70.9)"/><path d="M 484.4 190 L 484.4 160 L 544.4 160 L 544.4 90" fill="none" stroke="rgb(0, 0, 0)" stroke-miterlimit="10" pointer-events="stroke"/><image x="609.5" y="173" width="128" height="128" xlink:href="https://cdn4.iconfinder.com/data/icons/success-filloutline/64/board-stats-report-presentation-diagram-128.png" preserveAspectRatio="none"/></g></svg>