<?xml version="1.0" encoding="UTF-8"?>
<!-- Do not edit this file with editors other than diagrams.net -->
<!DOCTYPE svg PUBLIC "-//W3C//DTD SVG 1.1//EN" "http://www.w3.org/Graphics/SVG/1.1/DTD/svg11.dtd">
<svg xmlns="http://www.w3.org/2000/svg" xmlns:xlink="http://www.w3.org/1999/xlink" version="1.1" width="532px" height="401px" viewBox="-0.5 -0.5 532 401" content="&lt;mxfile host=&quot;app.diagrams.net&quot; modified=&quot;2023-05-02T09:13:47.617Z&quot; agent=&quot;Mozilla/5.0 (Windows NT 10.0; Win64; x64) AppleWebKit/537.36 (KHTML, like Gecko) Chrome/112.0.0.0 Safari/537.36&quot; etag=&quot;IlbCBoyI0doVvK2bFxt3&quot; version=&quot;21.2.4&quot; type=&quot;github&quot;&gt;&#10;  &lt;diagram name=&quot;Page-1&quot; id=&quot;xwjDph-BTLNEIcGHjNH0&quot;&gt;&#10;    &lt;mxGraphModel dx=&quot;1257&quot; dy=&quot;759&quot; grid=&quot;1&quot; gridSize=&quot;10&quot; guides=&quot;1&quot; tooltips=&quot;1&quot; connect=&quot;1&quot; arrows=&quot;1&quot; fold=&quot;1&quot; page=&quot;1&quot; pageScale=&quot;1&quot; pageWidth=&quot;827&quot; pageHeight=&quot;1169&quot; math=&quot;0&quot; shadow=&quot;0&quot;&gt;&#10;      &lt;root&gt;&#10;        &lt;mxCell id=&quot;0&quot; /&gt;&#10;        &lt;mxCell id=&quot;1&quot; parent=&quot;0&quot; /&gt;&#10;        &lt;mxCell id=&quot;IEez8AGFJPIhpADy_OUS-27&quot; value=&quot;&quot; style=&quot;verticalLabelPosition=bottom;html=1;verticalAlign=top;align=center;shape=mxgraph.floorplan.table;&quot; vertex=&quot;1&quot; parent=&quot;1&quot;&gt;&#10;          &lt;mxGeometry x=&quot;90.00000000000001&quot; y=&quot;70&quot; width=&quot;340&quot; height=&quot;160&quot; as=&quot;geometry&quot; /&gt;&#10;        &lt;/mxCell&gt;&#10;        &lt;mxCell id=&quot;IEez8AGFJPIhpADy_OUS-26&quot; value=&quot;&quot; style=&quot;verticalLabelPosition=bottom;html=1;verticalAlign=top;align=center;shape=mxgraph.floorplan.table;&quot; vertex=&quot;1&quot; parent=&quot;1&quot;&gt;&#10;          &lt;mxGeometry x=&quot;90&quot; y=&quot;310&quot; width=&quot;340&quot; height=&quot;160&quot; as=&quot;geometry&quot; /&gt;&#10;        &lt;/mxCell&gt;&#10;        &lt;mxCell id=&quot;IEez8AGFJPIhpADy_OUS-53&quot; value=&quot;&quot; style=&quot;edgeStyle=orthogonalEdgeStyle;rounded=0;orthogonalLoop=1;jettySize=auto;html=1;&quot; edge=&quot;1&quot; parent=&quot;1&quot; source=&quot;IEez8AGFJPIhpADy_OUS-1&quot; target=&quot;IEez8AGFJPIhpADy_OUS-35&quot;&gt;&#10;          &lt;mxGeometry relative=&quot;1&quot; as=&quot;geometry&quot; /&gt;&#10;        &lt;/mxCell&gt;&#10;        &lt;mxCell id=&quot;IEez8AGFJPIhpADy_OUS-1&quot; value=&quot;&quot; style=&quot;image;points=[];aspect=fixed;html=1;align=center;shadow=0;dashed=0;image=img/lib/allied_telesis/computer_and_terminals/Personal_Computer.svg;&quot; vertex=&quot;1&quot; parent=&quot;1&quot;&gt;&#10;          &lt;mxGeometry x=&quot;120&quot; y=&quot;160&quot; width=&quot;45.6&quot; height=&quot;61.800000000000004&quot; as=&quot;geometry&quot; /&gt;&#10;        &lt;/mxCell&gt;&#10;        &lt;mxCell id=&quot;IEez8AGFJPIhpADy_OUS-2&quot; value=&quot;&quot; style=&quot;image;points=[];aspect=fixed;html=1;align=center;shadow=0;dashed=0;image=img/lib/allied_telesis/computer_and_terminals/Personal_Computer.svg;&quot; vertex=&quot;1&quot; parent=&quot;1&quot;&gt;&#10;          &lt;mxGeometry x=&quot;200&quot; y=&quot;160&quot; width=&quot;45.6&quot; height=&quot;61.800000000000004&quot; as=&quot;geometry&quot; /&gt;&#10;        &lt;/mxCell&gt;&#10;        &lt;mxCell id=&quot;IEez8AGFJPIhpADy_OUS-51&quot; value=&quot;&quot; style=&quot;edgeStyle=orthogonalEdgeStyle;rounded=0;orthogonalLoop=1;jettySize=auto;html=1;&quot; edge=&quot;1&quot; parent=&quot;1&quot; source=&quot;IEez8AGFJPIhpADy_OUS-3&quot; target=&quot;IEez8AGFJPIhpADy_OUS-37&quot;&gt;&#10;          &lt;mxGeometry relative=&quot;1&quot; as=&quot;geometry&quot; /&gt;&#10;        &lt;/mxCell&gt;&#10;        &lt;mxCell id=&quot;IEez8AGFJPIhpADy_OUS-3&quot; value=&quot;&quot; style=&quot;image;points=[];aspect=fixed;html=1;align=center;shadow=0;dashed=0;image=img/lib/allied_telesis/computer_and_terminals/Personal_Computer.svg;&quot; vertex=&quot;1&quot; parent=&quot;1&quot;&gt;&#10;          &lt;mxGeometry x=&quot;280&quot; y=&quot;160&quot; width=&quot;45.6&quot; height=&quot;61.800000000000004&quot; as=&quot;geometry&quot; /&gt;&#10;        &lt;/mxCell&gt;&#10;        &lt;mxCell id=&quot;IEez8AGFJPIhpADy_OUS-42&quot; value=&quot;&quot; style=&quot;edgeStyle=orthogonalEdgeStyle;rounded=0;orthogonalLoop=1;jettySize=auto;html=1;&quot; edge=&quot;1&quot; parent=&quot;1&quot; source=&quot;IEez8AGFJPIhpADy_OUS-4&quot; target=&quot;IEez8AGFJPIhpADy_OUS-37&quot;&gt;&#10;          &lt;mxGeometry relative=&quot;1&quot; as=&quot;geometry&quot; /&gt;&#10;        &lt;/mxCell&gt;&#10;        &lt;mxCell id=&quot;IEez8AGFJPIhpADy_OUS-4&quot; value=&quot;&quot; style=&quot;image;points=[];aspect=fixed;html=1;align=center;shadow=0;dashed=0;image=img/lib/allied_telesis/computer_and_terminals/Personal_Computer.svg;&quot; vertex=&quot;1&quot; parent=&quot;1&quot;&gt;&#10;          &lt;mxGeometry x=&quot;360&quot; y=&quot;160&quot; width=&quot;45.6&quot; height=&quot;61.800000000000004&quot; as=&quot;geometry&quot; /&gt;&#10;        &lt;/mxCell&gt;&#10;        &lt;mxCell id=&quot;IEez8AGFJPIhpADy_OUS-52&quot; value=&quot;&quot; style=&quot;edgeStyle=orthogonalEdgeStyle;rounded=0;orthogonalLoop=1;jettySize=auto;html=1;&quot; edge=&quot;1&quot; parent=&quot;1&quot; source=&quot;IEez8AGFJPIhpADy_OUS-5&quot; target=&quot;IEez8AGFJPIhpADy_OUS-35&quot;&gt;&#10;          &lt;mxGeometry relative=&quot;1&quot; as=&quot;geometry&quot; /&gt;&#10;        &lt;/mxCell&gt;&#10;        &lt;mxCell id=&quot;IEez8AGFJPIhpADy_OUS-5&quot; value=&quot;&quot; style=&quot;image;points=[];aspect=fixed;html=1;align=center;shadow=0;dashed=0;image=img/lib/allied_telesis/computer_and_terminals/Personal_Computer.svg;&quot; vertex=&quot;1&quot; parent=&quot;1&quot;&gt;&#10;          &lt;mxGeometry x=&quot;120&quot; y=&quot;80&quot; width=&quot;45.6&quot; height=&quot;61.800000000000004&quot; as=&quot;geometry&quot; /&gt;&#10;        &lt;/mxCell&gt;&#10;        &lt;mxCell id=&quot;IEez8AGFJPIhpADy_OUS-6&quot; value=&quot;&quot; style=&quot;image;points=[];aspect=fixed;html=1;align=center;shadow=0;dashed=0;image=img/lib/allied_telesis/computer_and_terminals/Personal_Computer.svg;&quot; vertex=&quot;1&quot; parent=&quot;1&quot;&gt;&#10;          &lt;mxGeometry x=&quot;200&quot; y=&quot;80&quot; width=&quot;45.6&quot; height=&quot;61.800000000000004&quot; as=&quot;geometry&quot; /&gt;&#10;        &lt;/mxCell&gt;&#10;        &lt;mxCell id=&quot;IEez8AGFJPIhpADy_OUS-50&quot; value=&quot;&quot; style=&quot;edgeStyle=orthogonalEdgeStyle;rounded=0;orthogonalLoop=1;jettySize=auto;html=1;&quot; edge=&quot;1&quot; parent=&quot;1&quot; source=&quot;IEez8AGFJPIhpADy_OUS-7&quot; target=&quot;IEez8AGFJPIhpADy_OUS-37&quot;&gt;&#10;          &lt;mxGeometry relative=&quot;1&quot; as=&quot;geometry&quot; /&gt;&#10;        &lt;/mxCell&gt;&#10;        &lt;mxCell id=&quot;IEez8AGFJPIhpADy_OUS-7&quot; value=&quot;&quot; style=&quot;image;points=[];aspect=fixed;html=1;align=center;shadow=0;dashed=0;image=img/lib/allied_telesis/computer_and_terminals/Personal_Computer.svg;&quot; vertex=&quot;1&quot; parent=&quot;1&quot;&gt;&#10;          &lt;mxGeometry x=&quot;280&quot; y=&quot;80&quot; width=&quot;45.6&quot; height=&quot;61.800000000000004&quot; as=&quot;geometry&quot; /&gt;&#10;        &lt;/mxCell&gt;&#10;        &lt;mxCell id=&quot;IEez8AGFJPIhpADy_OUS-43&quot; value=&quot;&quot; style=&quot;edgeStyle=orthogonalEdgeStyle;rounded=0;orthogonalLoop=1;jettySize=auto;html=1;&quot; edge=&quot;1&quot; parent=&quot;1&quot; source=&quot;IEez8AGFJPIhpADy_OUS-8&quot; target=&quot;IEez8AGFJPIhpADy_OUS-37&quot;&gt;&#10;          &lt;mxGeometry relative=&quot;1&quot; as=&quot;geometry&quot; /&gt;&#10;        &lt;/mxCell&gt;&#10;        &lt;mxCell id=&quot;IEez8AGFJPIhpADy_OUS-8&quot; value=&quot;&quot; style=&quot;image;points=[];aspect=fixed;html=1;align=center;shadow=0;dashed=0;image=img/lib/allied_telesis/computer_and_terminals/Personal_Computer.svg;&quot; vertex=&quot;1&quot; parent=&quot;1&quot;&gt;&#10;          &lt;mxGeometry x=&quot;360&quot; y=&quot;80&quot; width=&quot;45.6&quot; height=&quot;61.800000000000004&quot; as=&quot;geometry&quot; /&gt;&#10;        &lt;/mxCell&gt;&#10;        &lt;mxCell id=&quot;IEez8AGFJPIhpADy_OUS-55&quot; value=&quot;&quot; style=&quot;edgeStyle=orthogonalEdgeStyle;rounded=0;orthogonalLoop=1;jettySize=auto;html=1;&quot; edge=&quot;1&quot; parent=&quot;1&quot; source=&quot;IEez8AGFJPIhpADy_OUS-9&quot; target=&quot;IEez8AGFJPIhpADy_OUS-39&quot;&gt;&#10;          &lt;mxGeometry relative=&quot;1&quot; as=&quot;geometry&quot; /&gt;&#10;        &lt;/mxCell&gt;&#10;        &lt;mxCell id=&quot;IEez8AGFJPIhpADy_OUS-9&quot; value=&quot;&quot; style=&quot;image;points=[];aspect=fixed;html=1;align=center;shadow=0;dashed=0;image=img/lib/allied_telesis/computer_and_terminals/Personal_Computer.svg;&quot; vertex=&quot;1&quot; parent=&quot;1&quot;&gt;&#10;          &lt;mxGeometry x=&quot;120&quot; y=&quot;400&quot; width=&quot;45.6&quot; height=&quot;61.800000000000004&quot; as=&quot;geometry&quot; /&gt;&#10;        &lt;/mxCell&gt;&#10;        &lt;mxCell id=&quot;IEez8AGFJPIhpADy_OUS-10&quot; value=&quot;&quot; style=&quot;image;points=[];aspect=fixed;html=1;align=center;shadow=0;dashed=0;image=img/lib/allied_telesis/computer_and_terminals/Personal_Computer.svg;&quot; vertex=&quot;1&quot; parent=&quot;1&quot;&gt;&#10;          &lt;mxGeometry x=&quot;200&quot; y=&quot;400&quot; width=&quot;45.6&quot; height=&quot;61.800000000000004&quot; as=&quot;geometry&quot; /&gt;&#10;        &lt;/mxCell&gt;&#10;        &lt;mxCell id=&quot;IEez8AGFJPIhpADy_OUS-49&quot; value=&quot;&quot; style=&quot;edgeStyle=orthogonalEdgeStyle;rounded=0;orthogonalLoop=1;jettySize=auto;html=1;&quot; edge=&quot;1&quot; parent=&quot;1&quot; source=&quot;IEez8AGFJPIhpADy_OUS-11&quot; target=&quot;IEez8AGFJPIhpADy_OUS-38&quot;&gt;&#10;          &lt;mxGeometry relative=&quot;1&quot; as=&quot;geometry&quot; /&gt;&#10;        &lt;/mxCell&gt;&#10;        &lt;mxCell id=&quot;IEez8AGFJPIhpADy_OUS-11&quot; value=&quot;&quot; style=&quot;image;points=[];aspect=fixed;html=1;align=center;shadow=0;dashed=0;image=img/lib/allied_telesis/computer_and_terminals/Personal_Computer.svg;&quot; vertex=&quot;1&quot; parent=&quot;1&quot;&gt;&#10;          &lt;mxGeometry x=&quot;280&quot; y=&quot;400&quot; width=&quot;45.6&quot; height=&quot;61.800000000000004&quot; as=&quot;geometry&quot; /&gt;&#10;        &lt;/mxCell&gt;&#10;        &lt;mxCell id=&quot;IEez8AGFJPIhpADy_OUS-41&quot; value=&quot;&quot; style=&quot;edgeStyle=orthogonalEdgeStyle;rounded=0;orthogonalLoop=1;jettySize=auto;html=1;&quot; edge=&quot;1&quot; parent=&quot;1&quot; source=&quot;IEez8AGFJPIhpADy_OUS-12&quot; target=&quot;IEez8AGFJPIhpADy_OUS-38&quot;&gt;&#10;          &lt;mxGeometry relative=&quot;1&quot; as=&quot;geometry&quot; /&gt;&#10;        &lt;/mxCell&gt;&#10;        &lt;mxCell id=&quot;IEez8AGFJPIhpADy_OUS-12&quot; value=&quot;&quot; style=&quot;image;points=[];aspect=fixed;html=1;align=center;shadow=0;dashed=0;image=img/lib/allied_telesis/computer_and_terminals/Personal_Computer.svg;&quot; vertex=&quot;1&quot; parent=&quot;1&quot;&gt;&#10;          &lt;mxGeometry x=&quot;360&quot; y=&quot;400&quot; width=&quot;45.6&quot; height=&quot;61.800000000000004&quot; as=&quot;geometry&quot; /&gt;&#10;        &lt;/mxCell&gt;&#10;        &lt;mxCell id=&quot;IEez8AGFJPIhpADy_OUS-54&quot; value=&quot;&quot; style=&quot;edgeStyle=orthogonalEdgeStyle;rounded=0;orthogonalLoop=1;jettySize=auto;html=1;&quot; edge=&quot;1&quot; parent=&quot;1&quot; source=&quot;IEez8AGFJPIhpADy_OUS-13&quot; target=&quot;IEez8AGFJPIhpADy_OUS-39&quot;&gt;&#10;          &lt;mxGeometry relative=&quot;1&quot; as=&quot;geometry&quot; /&gt;&#10;        &lt;/mxCell&gt;&#10;        &lt;mxCell id=&quot;IEez8AGFJPIhpADy_OUS-13&quot; value=&quot;&quot; style=&quot;image;points=[];aspect=fixed;html=1;align=center;shadow=0;dashed=0;image=img/lib/allied_telesis/computer_and_terminals/Personal_Computer.svg;&quot; vertex=&quot;1&quot; parent=&quot;1&quot;&gt;&#10;          &lt;mxGeometry x=&quot;120&quot; y=&quot;320&quot; width=&quot;45.6&quot; height=&quot;61.800000000000004&quot; as=&quot;geometry&quot; /&gt;&#10;        &lt;/mxCell&gt;&#10;        &lt;mxCell id=&quot;IEez8AGFJPIhpADy_OUS-14&quot; value=&quot;&quot; style=&quot;image;points=[];aspect=fixed;html=1;align=center;shadow=0;dashed=0;image=img/lib/allied_telesis/computer_and_terminals/Personal_Computer.svg;&quot; vertex=&quot;1&quot; parent=&quot;1&quot;&gt;&#10;          &lt;mxGeometry x=&quot;200&quot; y=&quot;320&quot; width=&quot;45.6&quot; height=&quot;61.800000000000004&quot; as=&quot;geometry&quot; /&gt;&#10;        &lt;/mxCell&gt;&#10;        &lt;mxCell id=&quot;IEez8AGFJPIhpADy_OUS-48&quot; value=&quot;&quot; style=&quot;edgeStyle=orthogonalEdgeStyle;rounded=0;orthogonalLoop=1;jettySize=auto;html=1;&quot; edge=&quot;1&quot; parent=&quot;1&quot; source=&quot;IEez8AGFJPIhpADy_OUS-15&quot; target=&quot;IEez8AGFJPIhpADy_OUS-38&quot;&gt;&#10;          &lt;mxGeometry relative=&quot;1&quot; as=&quot;geometry&quot; /&gt;&#10;        &lt;/mxCell&gt;&#10;        &lt;mxCell id=&quot;IEez8AGFJPIhpADy_OUS-15&quot; value=&quot;&quot; style=&quot;image;points=[];aspect=fixed;html=1;align=center;shadow=0;dashed=0;image=img/lib/allied_telesis/computer_and_terminals/Personal_Computer.svg;&quot; vertex=&quot;1&quot; parent=&quot;1&quot;&gt;&#10;          &lt;mxGeometry x=&quot;280&quot; y=&quot;320&quot; width=&quot;45.6&quot; height=&quot;61.800000000000004&quot; as=&quot;geometry&quot; /&gt;&#10;        &lt;/mxCell&gt;&#10;        &lt;mxCell id=&quot;IEez8AGFJPIhpADy_OUS-40&quot; value=&quot;&quot; style=&quot;edgeStyle=orthogonalEdgeStyle;rounded=0;orthogonalLoop=1;jettySize=auto;html=1;&quot; edge=&quot;1&quot; parent=&quot;1&quot; source=&quot;IEez8AGFJPIhpADy_OUS-16&quot; target=&quot;IEez8AGFJPIhpADy_OUS-38&quot;&gt;&#10;          &lt;mxGeometry relative=&quot;1&quot; as=&quot;geometry&quot; /&gt;&#10;        &lt;/mxCell&gt;&#10;        &lt;mxCell id=&quot;IEez8AGFJPIhpADy_OUS-16&quot; value=&quot;&quot; style=&quot;image;points=[];aspect=fixed;html=1;align=center;shadow=0;dashed=0;image=img/lib/allied_telesis/computer_and_terminals/Personal_Computer.svg;&quot; vertex=&quot;1&quot; parent=&quot;1&quot;&gt;&#10;          &lt;mxGeometry x=&quot;360&quot; y=&quot;320&quot; width=&quot;45.6&quot; height=&quot;61.800000000000004&quot; as=&quot;geometry&quot; /&gt;&#10;        &lt;/mxCell&gt;&#10;        &lt;mxCell id=&quot;IEez8AGFJPIhpADy_OUS-17&quot; value=&quot;&quot; style=&quot;fontColor=#0066CC;verticalAlign=top;verticalLabelPosition=bottom;labelPosition=center;align=center;html=1;outlineConnect=0;fillColor=#CCCCCC;strokeColor=#6881B3;gradientColor=none;gradientDirection=north;strokeWidth=2;shape=mxgraph.networks.video_projector;&quot; vertex=&quot;1&quot; parent=&quot;1&quot;&gt;&#10;          &lt;mxGeometry x=&quot;520&quot; y=&quot;260&quot; width=&quot;100&quot; height=&quot;35&quot; as=&quot;geometry&quot; /&gt;&#10;        &lt;/mxCell&gt;&#10;        &lt;mxCell id=&quot;IEez8AGFJPIhpADy_OUS-35&quot; value=&quot;&quot; style=&quot;sketch=0;pointerEvents=1;shadow=0;dashed=0;html=1;strokeColor=none;fillColor=#434445;aspect=fixed;labelPosition=center;verticalLabelPosition=bottom;verticalAlign=top;align=center;outlineConnect=0;shape=mxgraph.vvd.ethernet_port;&quot; vertex=&quot;1&quot; parent=&quot;1&quot;&gt;&#10;          &lt;mxGeometry x=&quot;247.5&quot; y=&quot;137.5&quot; width=&quot;25&quot; height=&quot;25&quot; as=&quot;geometry&quot; /&gt;&#10;        &lt;/mxCell&gt;&#10;        &lt;mxCell id=&quot;IEez8AGFJPIhpADy_OUS-37&quot; value=&quot;&quot; style=&quot;sketch=0;pointerEvents=1;shadow=0;dashed=0;html=1;strokeColor=none;fillColor=#434445;aspect=fixed;labelPosition=center;verticalLabelPosition=bottom;verticalAlign=top;align=center;outlineConnect=0;shape=mxgraph.vvd.ethernet_port;&quot; vertex=&quot;1&quot; parent=&quot;1&quot;&gt;&#10;          &lt;mxGeometry x=&quot;440&quot; y=&quot;137.5&quot; width=&quot;25&quot; height=&quot;25&quot; as=&quot;geometry&quot; /&gt;&#10;        &lt;/mxCell&gt;&#10;        &lt;mxCell id=&quot;IEez8AGFJPIhpADy_OUS-38&quot; value=&quot;&quot; style=&quot;sketch=0;pointerEvents=1;shadow=0;dashed=0;html=1;strokeColor=none;fillColor=#434445;aspect=fixed;labelPosition=center;verticalLabelPosition=bottom;verticalAlign=top;align=center;outlineConnect=0;shape=mxgraph.vvd.ethernet_port;&quot; vertex=&quot;1&quot; parent=&quot;1&quot;&gt;&#10;          &lt;mxGeometry x=&quot;440&quot; y=&quot;377.5&quot; width=&quot;25&quot; height=&quot;25&quot; as=&quot;geometry&quot; /&gt;&#10;        &lt;/mxCell&gt;&#10;        &lt;mxCell id=&quot;IEez8AGFJPIhpADy_OUS-39&quot; value=&quot;&quot; style=&quot;sketch=0;pointerEvents=1;shadow=0;dashed=0;html=1;strokeColor=none;fillColor=#434445;aspect=fixed;labelPosition=center;verticalLabelPosition=bottom;verticalAlign=top;align=center;outlineConnect=0;shape=mxgraph.vvd.ethernet_port;&quot; vertex=&quot;1&quot; parent=&quot;1&quot;&gt;&#10;          &lt;mxGeometry x=&quot;247.5&quot; y=&quot;377.5&quot; width=&quot;25&quot; height=&quot;25&quot; as=&quot;geometry&quot; /&gt;&#10;        &lt;/mxCell&gt;&#10;      &lt;/root&gt;&#10;    &lt;/mxGraphModel&gt;&#10;  &lt;/diagram&gt;&#10;&lt;/mxfile&gt;&#10;" resource="https://app.diagrams.net/?src=about#HShadient%2FDiagrams%2Fmain%2Freseau.drawio.svg"><defs/><g><rect x="0" y="0" width="340" height="160" fill="rgb(255, 255, 255)" stroke="rgb(0, 0, 0)" pointer-events="all"/><rect x="0" y="0" width="37.78" height="22.4" fill="none" stroke="rgb(0, 0, 0)" pointer-events="all"/><rect x="0" y="137.6" width="37.78" height="22.4" fill="none" stroke="rgb(0, 0, 0)" pointer-events="all"/><rect x="302.22" y="0" width="37.78" height="22.4" fill="none" stroke="rgb(0, 0, 0)" pointer-events="all"/><rect x="302.22" y="137.6" width="37.78" height="22.4" fill="none" stroke="rgb(0, 0, 0)" pointer-events="all"/><rect x="0" y="240" width="340" height="160" fill="rgb(255, 255, 255)" stroke="rgb(0, 0, 0)" pointer-events="all"/><rect x="0" y="240" width="37.78" height="22.4" fill="none" stroke="rgb(0, 0, 0)" pointer-events="all"/><rect x="0" y="377.6" width="37.78" height="22.4" fill="none" stroke="rgb(0, 0, 0)" pointer-events="all"/><rect x="302.22" y="240" width="37.78" height="22.4" fill="none" stroke="rgb(0, 0, 0)" pointer-events="all"/><rect x="302.22" y="377.6" width="37.78" height="22.4" fill="none" stroke="rgb(0, 0, 0)" pointer-events="all"/><path d="M 75.6 120.9 L 116.6 120.9 L 116.6 80 L 151.13 80" fill="none" stroke="rgb(0, 0, 0)" stroke-miterlimit="10" pointer-events="stroke"/><path d="M 156.38 80 L 149.38 83.5 L 151.13 80 L 149.38 76.5 Z" fill="rgb(0, 0, 0)" stroke="rgb(0, 0, 0)" stroke-miterlimit="10" pointer-events="all"/><image x="29.5" y="89.5" width="45.6" height="61.8" xlink:href="https://app.diagrams.net/img/lib/allied_telesis/computer_and_terminals/Personal_Computer.svg"/><image x="109.5" y="89.5" width="45.6" height="61.8" xlink:href="https://app.diagrams.net/img/lib/allied_telesis/computer_and_terminals/Personal_Computer.svg"/><path d="M 235.6 120.9 L 292.8 120.9 L 292.8 80 L 343.63 80" fill="none" stroke="rgb(0, 0, 0)" stroke-miterlimit="10" pointer-events="stroke"/><path d="M 348.88 80 L 341.88 83.5 L 343.63 80 L 341.88 76.5 Z" fill="rgb(0, 0, 0)" stroke="rgb(0, 0, 0)" stroke-miterlimit="10" pointer-events="all"/><image x="189.5" y="89.5" width="45.6" height="61.8" xlink:href="https://app.diagrams.net/img/lib/allied_telesis/computer_and_terminals/Personal_Computer.svg"/><path d="M 315.6 120.9 L 335.6 120.9 L 335.6 80 L 343.63 80" fill="none" stroke="rgb(0, 0, 0)" stroke-miterlimit="10" pointer-events="stroke"/><path d="M 348.88 80 L 341.88 83.5 L 343.63 80 L 341.88 76.5 Z" fill="rgb(0, 0, 0)" stroke="rgb(0, 0, 0)" stroke-miterlimit="10" pointer-events="all"/><image x="269.5" y="89.5" width="45.6" height="61.8" xlink:href="https://app.diagrams.net/img/lib/allied_telesis/computer_and_terminals/Personal_Computer.svg"/><path d="M 75.6 40.9 L 116.6 40.9 L 116.6 80 L 151.13 80" fill="none" stroke="rgb(0, 0, 0)" stroke-miterlimit="10" pointer-events="stroke"/><path d="M 156.38 80 L 149.38 83.5 L 151.13 80 L 149.38 76.5 Z" fill="rgb(0, 0, 0)" stroke="rgb(0, 0, 0)" stroke-miterlimit="10" pointer-events="all"/><image x="29.5" y="9.5" width="45.6" height="61.8" xlink:href="https://app.diagrams.net/img/lib/allied_telesis/computer_and_terminals/Personal_Computer.svg"/><image x="109.5" y="9.5" width="45.6" height="61.8" xlink:href="https://app.diagrams.net/img/lib/allied_telesis/computer_and_terminals/Personal_Computer.svg"/><path d="M 235.6 40.9 L 292.8 40.9 L 292.8 80 L 343.63 80" fill="none" stroke="rgb(0, 0, 0)" stroke-miterlimit="10" pointer-events="stroke"/><path d="M 348.88 80 L 341.88 83.5 L 343.63 80 L 341.88 76.5 Z" fill="rgb(0, 0, 0)" stroke="rgb(0, 0, 0)" stroke-miterlimit="10" pointer-events="all"/><image x="189.5" y="9.5" width="45.6" height="61.8" xlink:href="https://app.diagrams.net/img/lib/allied_telesis/computer_and_terminals/Personal_Computer.svg"/><path d="M 315.6 40.9 L 335.6 40.9 L 335.6 80 L 343.63 80" fill="none" stroke="rgb(0, 0, 0)" stroke-miterlimit="10" pointer-events="stroke"/><path d="M 348.88 80 L 341.88 83.5 L 343.63 80 L 341.88 76.5 Z" fill="rgb(0, 0, 0)" stroke="rgb(0, 0, 0)" stroke-miterlimit="10" pointer-events="all"/><image x="269.5" y="9.5" width="45.6" height="61.8" xlink:href="https://app.diagrams.net/img/lib/allied_telesis/computer_and_terminals/Personal_Computer.svg"/><path d="M 75.6 360.9 L 116.6 360.9 L 116.6 320 L 151.13 320" fill="none" stroke="rgb(0, 0, 0)" stroke-miterlimit="10" pointer-events="stroke"/><path d="M 156.38 320 L 149.38 323.5 L 151.13 320 L 149.38 316.5 Z" fill="rgb(0, 0, 0)" stroke="rgb(0, 0, 0)" stroke-miterlimit="10" pointer-events="all"/><image x="29.5" y="329.5" width="45.6" height="61.8" xlink:href="https://app.diagrams.net/img/lib/allied_telesis/computer_and_terminals/Personal_Computer.svg"/><image x="109.5" y="329.5" width="45.6" height="61.8" xlink:href="https://app.diagrams.net/img/lib/allied_telesis/computer_and_terminals/Personal_Computer.svg"/><path d="M 235.6 360.9 L 292.8 360.9 L 292.8 320 L 343.63 320" fill="none" stroke="rgb(0, 0, 0)" stroke-miterlimit="10" pointer-events="stroke"/><path d="M 348.88 320 L 341.88 323.5 L 343.63 320 L 341.88 316.5 Z" fill="rgb(0, 0, 0)" stroke="rgb(0, 0, 0)" stroke-miterlimit="10" pointer-events="all"/><image x="189.5" y="329.5" width="45.6" height="61.8" xlink:href="https://app.diagrams.net/img/lib/allied_telesis/computer_and_terminals/Personal_Computer.svg"/><path d="M 315.6 360.9 L 335.6 360.9 L 335.6 320 L 343.63 320" fill="none" stroke="rgb(0, 0, 0)" stroke-miterlimit="10" pointer-events="stroke"/><path d="M 348.88 320 L 341.88 323.5 L 343.63 320 L 341.88 316.5 Z" fill="rgb(0, 0, 0)" stroke="rgb(0, 0, 0)" stroke-miterlimit="10" pointer-events="all"/><image x="269.5" y="329.5" width="45.6" height="61.8" xlink:href="https://app.diagrams.net/img/lib/allied_telesis/computer_and_terminals/Personal_Computer.svg"/><path d="M 75.6 280.9 L 116.6 280.9 L 116.6 320 L 151.13 320" fill="none" stroke="rgb(0, 0, 0)" stroke-miterlimit="10" pointer-events="stroke"/><path d="M 156.38 320 L 149.38 323.5 L 151.13 320 L 149.38 316.5 Z" fill="rgb(0, 0, 0)" stroke="rgb(0, 0, 0)" stroke-miterlimit="10" pointer-events="all"/><image x="29.5" y="249.5" width="45.6" height="61.8" xlink:href="https://app.diagrams.net/img/lib/allied_telesis/computer_and_terminals/Personal_Computer.svg"/><image x="109.5" y="249.5" width="45.6" height="61.8" xlink:href="https://app.diagrams.net/img/lib/allied_telesis/computer_and_terminals/Personal_Computer.svg"/><path d="M 235.6 280.9 L 292.8 280.9 L 292.8 320 L 343.63 320" fill="none" stroke="rgb(0, 0, 0)" stroke-miterlimit="10" pointer-events="stroke"/><path d="M 348.88 320 L 341.88 323.5 L 343.63 320 L 341.88 316.5 Z" fill="rgb(0, 0, 0)" stroke="rgb(0, 0, 0)" stroke-miterlimit="10" pointer-events="all"/><image x="189.5" y="249.5" width="45.6" height="61.8" xlink:href="https://app.diagrams.net/img/lib/allied_telesis/computer_and_terminals/Personal_Computer.svg"/><path d="M 315.6 280.9 L 335.6 280.9 L 335.6 320 L 343.63 320" fill="none" stroke="rgb(0, 0, 0)" stroke-miterlimit="10" pointer-events="stroke"/><path d="M 348.88 320 L 341.88 323.5 L 343.63 320 L 341.88 316.5 Z" fill="rgb(0, 0, 0)" stroke="rgb(0, 0, 0)" stroke-miterlimit="10" pointer-events="all"/><image x="269.5" y="249.5" width="45.6" height="61.8" xlink:href="https://app.diagrams.net/img/lib/allied_telesis/computer_and_terminals/Personal_Computer.svg"/><rect x="430" y="195.15" width="100" height="25.74" rx="4.12" ry="4.12" fill="#cccccc" stroke="#6881b3" stroke-width="2" pointer-events="all"/><ellipse cx="500" cy="206.47" rx="16" ry="16.470588235294116" fill="#cccccc" stroke="#6881b3" stroke-width="2" pointer-events="all"/><rect x="437" y="220.88" width="8" height="4.12" fill="#cccccc" stroke="#6881b3" stroke-width="2" pointer-events="all"/><rect x="515" y="220.88" width="8" height="4.12" fill="#cccccc" stroke="#6881b3" stroke-width="2" pointer-events="all"/><ellipse cx="522" cy="208.53" rx="2" ry="2.0588235294117645" fill="#ffffff" stroke="none" pointer-events="all"/><rect x="438" y="198.75" width="40" height="3.09" fill="#ffffff" stroke="none" pointer-events="all"/><ellipse cx="522" cy="201.32" rx="2" ry="2.0588235294117645" fill="#ffffff" stroke="none" pointer-events="all"/><rect x="438" y="203.9" width="40" height="3.09" fill="#ffffff" stroke="none" pointer-events="all"/><rect x="438" y="209.04" width="40" height="3.09" fill="#ffffff" stroke="none" pointer-events="all"/><rect x="438" y="214.19" width="40" height="3.09" fill="#ffffff" stroke="none" pointer-events="all"/><ellipse cx="500" cy="206.47" rx="13" ry="13.38235294117647" fill="#ffffff" stroke="none" pointer-events="all"/><rect x="157.5" y="67.5" width="25" height="25" fill="none" stroke="none" pointer-events="all"/><path d="M 176.48 74.67 C 176.33 74.67 176.18 74.73 176.08 74.84 C 175.97 74.95 175.91 75.1 175.91 75.25 L 175.91 77.54 C 175.91 77.86 176.17 78.11 176.49 78.11 C 176.81 78.11 177.07 77.86 177.07 77.54 L 177.07 75.25 C 177.07 75.1 177.01 74.95 176.9 74.83 C 176.79 74.72 176.64 74.66 176.48 74.67 Z M 173.43 74.67 C 173.28 74.67 173.13 74.73 173.02 74.84 C 172.92 74.95 172.86 75.1 172.86 75.25 L 172.86 77.54 C 172.86 77.86 173.12 78.11 173.44 78.11 C 173.76 78.11 174.01 77.86 174.01 77.54 L 174.01 75.25 C 174.02 75.1 173.96 74.95 173.85 74.84 C 173.73 74.73 173.58 74.66 173.43 74.67 Z M 170.38 74.67 C 170.22 74.67 170.08 74.73 169.97 74.84 C 169.86 74.95 169.81 75.1 169.81 75.25 L 169.81 77.54 C 169.81 77.86 170.07 78.11 170.39 78.11 C 170.7 78.11 170.96 77.86 170.96 77.54 L 170.96 75.25 C 170.96 75.1 170.9 74.95 170.79 74.83 C 170.68 74.72 170.53 74.66 170.38 74.67 Z M 167.32 74.67 C 167.17 74.67 167.02 74.73 166.92 74.84 C 166.81 74.95 166.75 75.1 166.76 75.25 L 166.76 77.54 C 166.76 77.86 167.01 78.11 167.33 78.11 C 167.65 78.11 167.91 77.86 167.91 77.54 L 167.91 75.25 C 167.91 75.1 167.85 74.95 167.74 74.83 C 167.63 74.72 167.48 74.66 167.32 74.67 Z M 164.27 74.67 C 164.12 74.67 163.97 74.73 163.87 74.84 C 163.76 74.95 163.7 75.1 163.7 75.25 L 163.7 77.54 C 163.7 77.86 163.96 78.11 164.28 78.11 C 164.6 78.11 164.86 77.86 164.86 77.54 L 164.86 75.25 C 164.86 75.1 164.8 74.95 164.69 74.84 C 164.58 74.73 164.43 74.66 164.27 74.67 Z M 160.87 72.5 L 160.87 83.76 L 161.49 83.76 L 164.01 83.76 L 164.01 85.85 L 166.05 85.85 L 166.05 88.25 L 174.13 88.25 L 174.13 85.85 L 176.34 85.85 L 176.34 83.76 L 179.37 83.76 L 179.37 72.5 Z M 162.1 73.73 L 178.14 73.73 L 178.14 82.53 L 175.11 82.53 L 175.11 84.62 L 172.9 84.62 L 172.9 87.02 L 167.28 87.02 L 167.28 84.62 L 165.24 84.62 L 165.24 82.53 L 162.1 82.53 Z M 159.51 67.5 C 158.41 67.5 157.5 68.41 157.5 69.51 L 157.5 90.49 C 157.5 91.6 158.41 92.5 159.51 92.5 L 180.49 92.5 C 181.59 92.5 182.5 91.6 182.5 90.49 L 182.5 69.51 C 182.5 68.41 181.59 67.5 180.49 67.5 Z M 159.51 68.73 L 180.49 68.73 C 180.93 68.73 181.27 69.06 181.27 69.51 L 181.27 90.49 C 181.27 90.94 180.93 91.27 180.49 91.27 L 159.51 91.27 C 159.07 91.27 158.73 90.94 158.73 90.49 L 158.73 69.51 C 158.73 69.06 159.07 68.73 159.51 68.73 Z" fill="#434445" stroke="none" pointer-events="all"/><rect x="350" y="67.5" width="25" height="25" fill="none" stroke="none" pointer-events="all"/><path d="M 368.98 74.67 C 368.83 74.67 368.68 74.73 368.58 74.84 C 368.47 74.95 368.41 75.1 368.41 75.25 L 368.41 77.54 C 368.41 77.86 368.67 78.11 368.99 78.11 C 369.31 78.11 369.57 77.86 369.57 77.54 L 369.57 75.25 C 369.57 75.1 369.51 74.95 369.4 74.83 C 369.29 74.72 369.14 74.66 368.98 74.67 Z M 365.93 74.67 C 365.78 74.67 365.63 74.73 365.52 74.84 C 365.42 74.95 365.36 75.1 365.36 75.25 L 365.36 77.54 C 365.36 77.86 365.62 78.11 365.94 78.11 C 366.26 78.11 366.51 77.86 366.51 77.54 L 366.51 75.25 C 366.52 75.1 366.46 74.95 366.35 74.84 C 366.23 74.73 366.08 74.66 365.93 74.67 Z M 362.88 74.67 C 362.72 74.67 362.58 74.73 362.47 74.84 C 362.36 74.95 362.31 75.1 362.31 75.25 L 362.31 77.54 C 362.31 77.86 362.57 78.11 362.89 78.11 C 363.2 78.11 363.46 77.86 363.46 77.54 L 363.46 75.25 C 363.46 75.1 363.4 74.95 363.29 74.83 C 363.18 74.72 363.03 74.66 362.88 74.67 Z M 359.82 74.67 C 359.67 74.67 359.52 74.73 359.42 74.84 C 359.31 74.95 359.25 75.1 359.26 75.25 L 359.26 77.54 C 359.26 77.86 359.51 78.11 359.83 78.11 C 360.15 78.11 360.41 77.86 360.41 77.54 L 360.41 75.25 C 360.41 75.1 360.35 74.95 360.24 74.83 C 360.13 74.72 359.98 74.66 359.82 74.67 Z M 356.77 74.67 C 356.62 74.67 356.47 74.73 356.37 74.84 C 356.26 74.95 356.2 75.1 356.2 75.25 L 356.2 77.54 C 356.2 77.86 356.46 78.11 356.78 78.11 C 357.1 78.11 357.36 77.86 357.36 77.54 L 357.36 75.25 C 357.36 75.1 357.3 74.95 357.19 74.84 C 357.08 74.73 356.93 74.66 356.77 74.67 Z M 353.37 72.5 L 353.37 83.76 L 353.99 83.76 L 356.51 83.76 L 356.51 85.85 L 358.55 85.85 L 358.55 88.25 L 366.63 88.25 L 366.63 85.85 L 368.84 85.85 L 368.84 83.76 L 371.87 83.76 L 371.87 72.5 Z M 354.6 73.73 L 370.64 73.73 L 370.64 82.53 L 367.61 82.53 L 367.61 84.62 L 365.4 84.62 L 365.4 87.02 L 359.78 87.02 L 359.78 84.62 L 357.74 84.62 L 357.74 82.53 L 354.6 82.53 Z M 352.01 67.5 C 350.91 67.5 350 68.41 350 69.51 L 350 90.49 C 350 91.6 350.91 92.5 352.01 92.5 L 372.99 92.5 C 374.09 92.5 375 91.6 375 90.49 L 375 69.51 C 375 68.41 374.09 67.5 372.99 67.5 Z M 352.01 68.73 L 372.99 68.73 C 373.43 68.73 373.77 69.06 373.77 69.51 L 373.77 90.49 C 373.77 90.94 373.43 91.27 372.99 91.27 L 352.01 91.27 C 351.57 91.27 351.23 90.94 351.23 90.49 L 351.23 69.51 C 351.23 69.06 351.57 68.73 352.01 68.73 Z" fill="#434445" stroke="none" pointer-events="all"/><rect x="350" y="307.5" width="25" height="25" fill="none" stroke="none" pointer-events="all"/><path d="M 368.98 314.67 C 368.83 314.67 368.68 314.73 368.58 314.84 C 368.47 314.95 368.41 315.1 368.41 315.25 L 368.41 317.54 C 368.41 317.86 368.67 318.11 368.99 318.11 C 369.31 318.11 369.57 317.86 369.57 317.54 L 369.57 315.25 C 369.57 315.1 369.51 314.95 369.4 314.83 C 369.29 314.72 369.14 314.66 368.98 314.67 Z M 365.93 314.67 C 365.78 314.67 365.63 314.73 365.52 314.84 C 365.42 314.95 365.36 315.1 365.36 315.25 L 365.36 317.54 C 365.36 317.86 365.62 318.11 365.94 318.11 C 366.26 318.11 366.51 317.86 366.51 317.54 L 366.51 315.25 C 366.52 315.1 366.46 314.95 366.35 314.84 C 366.23 314.73 366.08 314.66 365.93 314.67 Z M 362.88 314.67 C 362.72 314.67 362.58 314.73 362.47 314.84 C 362.36 314.95 362.31 315.1 362.31 315.25 L 362.31 317.54 C 362.31 317.86 362.57 318.11 362.89 318.11 C 363.2 318.11 363.46 317.86 363.46 317.54 L 363.46 315.25 C 363.46 315.1 363.4 314.95 363.29 314.83 C 363.18 314.72 363.03 314.66 362.88 314.67 Z M 359.82 314.67 C 359.67 314.67 359.52 314.73 359.42 314.84 C 359.31 314.95 359.25 315.1 359.26 315.25 L 359.26 317.54 C 359.26 317.86 359.51 318.11 359.83 318.11 C 360.15 318.11 360.41 317.86 360.41 317.54 L 360.41 315.25 C 360.41 315.1 360.35 314.95 360.24 314.83 C 360.13 314.72 359.98 314.66 359.82 314.67 Z M 356.77 314.67 C 356.62 314.67 356.47 314.73 356.37 314.84 C 356.26 314.95 356.2 315.1 356.2 315.25 L 356.2 317.54 C 356.2 317.86 356.46 318.11 356.78 318.11 C 357.1 318.11 357.36 317.86 357.36 317.54 L 357.36 315.25 C 357.36 315.1 357.3 314.95 357.19 314.84 C 357.08 314.73 356.93 314.66 356.77 314.67 Z M 353.37 312.5 L 353.37 323.76 L 353.99 323.76 L 356.51 323.76 L 356.51 325.85 L 358.55 325.85 L 358.55 328.25 L 366.63 328.25 L 366.63 325.85 L 368.84 325.85 L 368.84 323.76 L 371.87 323.76 L 371.87 312.5 Z M 354.6 313.73 L 370.64 313.73 L 370.64 322.53 L 367.61 322.53 L 367.61 324.62 L 365.4 324.62 L 365.4 327.02 L 359.78 327.02 L 359.78 324.62 L 357.74 324.62 L 357.74 322.53 L 354.6 322.53 Z M 352.01 307.5 C 350.91 307.5 350 308.41 350 309.51 L 350 330.49 C 350 331.6 350.91 332.5 352.01 332.5 L 372.99 332.5 C 374.09 332.5 375 331.6 375 330.49 L 375 309.51 C 375 308.41 374.09 307.5 372.99 307.5 Z M 352.01 308.73 L 372.99 308.73 C 373.43 308.73 373.77 309.06 373.77 309.51 L 373.77 330.49 C 373.77 330.94 373.43 331.27 372.99 331.27 L 352.01 331.27 C 351.57 331.27 351.23 330.94 351.23 330.49 L 351.23 309.51 C 351.23 309.06 351.57 308.73 352.01 308.73 Z" fill="#434445" stroke="none" pointer-events="all"/><rect x="157.5" y="307.5" width="25" height="25" fill="none" stroke="none" pointer-events="all"/><path d="M 176.48 314.67 C 176.33 314.67 176.18 314.73 176.08 314.84 C 175.97 314.95 175.91 315.1 175.91 315.25 L 175.91 317.54 C 175.91 317.86 176.17 318.11 176.49 318.11 C 176.81 318.11 177.07 317.86 177.07 317.54 L 177.07 315.25 C 177.07 315.1 177.01 314.95 176.9 314.83 C 176.79 314.72 176.64 314.66 176.48 314.67 Z M 173.43 314.67 C 173.28 314.67 173.13 314.73 173.02 314.84 C 172.92 314.95 172.86 315.1 172.86 315.25 L 172.86 317.54 C 172.86 317.86 173.12 318.11 173.44 318.11 C 173.76 318.11 174.01 317.86 174.01 317.54 L 174.01 315.25 C 174.02 315.1 173.96 314.95 173.85 314.84 C 173.73 314.73 173.58 314.66 173.43 314.67 Z M 170.38 314.67 C 170.22 314.67 170.08 314.73 169.97 314.84 C 169.86 314.95 169.81 315.1 169.81 315.25 L 169.81 317.54 C 169.81 317.86 170.07 318.11 170.39 318.11 C 170.7 318.11 170.96 317.86 170.96 317.54 L 170.96 315.25 C 170.96 315.1 170.9 314.95 170.79 314.83 C 170.68 314.72 170.53 314.66 170.38 314.67 Z M 167.32 314.67 C 167.17 314.67 167.02 314.73 166.92 314.84 C 166.81 314.95 166.75 315.1 166.76 315.25 L 166.76 317.54 C 166.76 317.86 167.01 318.11 167.33 318.11 C 167.65 318.11 167.91 317.86 167.91 317.54 L 167.91 315.25 C 167.91 315.1 167.85 314.95 167.74 314.83 C 167.63 314.72 167.48 314.66 167.32 314.67 Z M 164.27 314.67 C 164.12 314.67 163.97 314.73 163.87 314.84 C 163.76 314.95 163.7 315.1 163.7 315.25 L 163.7 317.54 C 163.7 317.86 163.96 318.11 164.28 318.11 C 164.6 318.11 164.86 317.86 164.86 317.54 L 164.86 315.25 C 164.86 315.1 164.8 314.95 164.69 314.84 C 164.58 314.73 164.43 314.66 164.27 314.67 Z M 160.87 312.5 L 160.87 323.76 L 161.49 323.76 L 164.01 323.76 L 164.01 325.85 L 166.05 325.85 L 166.05 328.25 L 174.13 328.25 L 174.13 325.85 L 176.34 325.85 L 176.34 323.76 L 179.37 323.76 L 179.37 312.5 Z M 162.1 313.73 L 178.14 313.73 L 178.14 322.53 L 175.11 322.53 L 175.11 324.62 L 172.9 324.62 L 172.9 327.02 L 167.28 327.02 L 167.28 324.62 L 165.24 324.62 L 165.24 322.53 L 162.1 322.53 Z M 159.51 307.5 C 158.41 307.5 157.5 308.41 157.5 309.51 L 157.5 330.49 C 157.5 331.6 158.41 332.5 159.51 332.5 L 180.49 332.5 C 181.59 332.5 182.5 331.6 182.5 330.49 L 182.5 309.51 C 182.5 308.41 181.59 307.5 180.49 307.5 Z M 159.51 308.73 L 180.49 308.73 C 180.93 308.73 181.27 309.06 181.27 309.51 L 181.27 330.49 C 181.27 330.94 180.93 331.27 180.49 331.27 L 159.51 331.27 C 159.07 331.27 158.73 330.94 158.73 330.49 L 158.73 309.51 C 158.73 309.06 159.07 308.73 159.51 308.73 Z" fill="#434445" stroke="none" pointer-events="all"/></g></svg>